<svg width="153" height="170" viewBox="0 0 153 170" fill="none" xmlns="http://www.w3.org/2000/svg">
<path d="M0 137.927C0 126.973 8.87967 118.093 19.8333 118.093H133.167C144.12 118.093 153 126.973 153 137.927C153 155.14 139.046 169.093 121.833 169.093H31.1667C13.9538 169.093 0 155.14 0 137.927Z" fill="#1C1F26"/>
<path d="M15.6198 54.0125C18.3554 31.2168 19.7231 19.8188 26.3154 12.0316C28.4077 9.56023 30.8421 7.40044 33.5452 5.61759C42.0623 1.01328e-06 53.542 0 76.5008 0C99.461 0 110.941 1.01328e-06 119.458 5.61759C122.161 7.40044 124.595 9.56023 126.687 12.0316C133.28 19.8188 134.648 31.2168 137.382 54.0125L138.414 62.5988C141.252 86.2565 142.672 98.0855 135.908 105.709C129.144 113.333 117.231 113.333 93.4022 113.333H59.5994C35.7724 113.333 23.8587 113.333 17.0949 105.709C10.3311 98.0855 11.7505 86.2565 14.5895 62.5988L15.6198 54.0125Z" fill="#1C1F26"/>
</svg>
