<svg width="59" height="61" viewBox="0 0 59 61" fill="none" xmlns="http://www.w3.org/2000/svg">
<path d="M9.18807 58.5C12.8818 58.5 15.8761 55.7256 15.8761 52.3033C15.8761 48.8809 12.8818 46.1066 9.18807 46.1066C5.49435 46.1066 2.5 48.8809 2.5 52.3033C2.5 55.7256 5.49435 58.5 9.18807 58.5Z" stroke="white" stroke-width="5" stroke-linecap="round"/>
<path d="M36.1881 30.5H56.5" stroke="white" stroke-width="5" stroke-linecap="round"/>
<path d="M2.5 8.46722H43.1239" stroke="white" stroke-width="5" stroke-linecap="round"/>
<path d="M2.5 30.5H22.8119" stroke="white" stroke-width="5" stroke-linecap="round"/>
<path d="M15.8761 52.5328H56.4999" stroke="white" stroke-width="5" stroke-linecap="round"/>
<path d="M49.812 14.8934C53.5057 14.8934 56.5 12.1191 56.5 8.69672C56.5 5.27437 53.5057 2.5 49.812 2.5C46.1183 2.5 43.1239 5.27437 43.1239 8.69672C43.1239 12.1191 46.1183 14.8934 49.812 14.8934Z" stroke="white" stroke-width="5" stroke-linecap="round"/>
<path d="M29.5 36.9262C33.1937 36.9262 36.188 34.1519 36.188 30.7295C36.188 27.3071 33.1937 24.5328 29.5 24.5328C25.8062 24.5328 22.8119 27.3071 22.8119 30.7295C22.8119 34.1519 25.8062 36.9262 29.5 36.9262Z" stroke="white" stroke-width="5" stroke-linecap="round"/>
</svg>
