<svg width="393" height="168" viewBox="0 0 393 168" fill="none" xmlns="http://www.w3.org/2000/svg">
<path d="M169.759 58.6875H162.119V36.142H169.913C172.152 36.142 174.074 36.5934 175.682 37.4961C177.296 38.3915 178.537 39.6794 179.403 41.3601C180.269 43.0407 180.702 45.0516 180.702 47.3928C180.702 49.7412 180.265 51.7595 179.392 53.4474C178.526 55.1354 177.274 56.4308 175.638 57.3335C174.008 58.2362 172.049 58.6875 169.759 58.6875ZM166.203 55.1538H169.561C171.132 55.1538 172.442 54.8675 173.491 54.2951C174.541 53.7153 175.329 52.853 175.858 51.7081C176.386 50.5559 176.65 49.1174 176.65 47.3928C176.65 45.6681 176.386 44.237 175.858 43.0994C175.329 41.9545 174.548 41.0996 173.513 40.5344C172.486 39.962 171.209 39.6758 169.682 39.6758H166.203V55.1538ZM191.892 59.0178C190.196 59.0178 188.732 58.6655 187.499 57.9609C186.274 57.2491 185.331 56.2436 184.67 54.9446C184.01 53.6383 183.679 52.1007 183.679 50.332C183.679 48.5927 184.01 47.0662 184.67 45.7525C185.338 44.4315 186.27 43.404 187.466 42.6701C188.663 41.9289 190.068 41.5582 191.683 41.5582C192.725 41.5582 193.708 41.727 194.633 42.0646C195.565 42.3949 196.387 42.9086 197.099 43.6058C197.818 44.303 198.383 45.1911 198.794 46.2699C199.205 47.3414 199.411 48.6184 199.411 50.1009V51.3228H185.551V48.6367H195.591C195.583 47.8735 195.418 47.1946 195.095 46.6001C194.772 45.9983 194.321 45.525 193.741 45.18C193.169 44.8351 192.501 44.6626 191.738 44.6626C190.923 44.6626 190.207 44.8608 189.591 45.2571C188.975 45.6461 188.494 46.1598 188.149 46.7983C187.811 47.4295 187.639 48.123 187.631 48.8789V51.2237C187.631 52.2071 187.811 53.0511 188.171 53.7557C188.531 54.4529 189.033 54.9886 189.679 55.3629C190.325 55.7299 191.081 55.9134 191.947 55.9134C192.527 55.9134 193.051 55.8326 193.521 55.6712C193.991 55.5024 194.398 55.2565 194.743 54.9336C195.088 54.6107 195.348 54.2107 195.525 53.7337L199.245 54.152C199.011 55.1354 198.563 55.9941 197.902 56.728C197.249 57.4545 196.413 58.0196 195.392 58.4233C194.372 58.8196 193.205 59.0178 191.892 59.0178ZM202.782 58.6875V41.7784H206.591V44.6516H206.789C207.141 43.6829 207.725 42.927 208.539 42.3839C209.354 41.8335 210.326 41.5582 211.457 41.5582C212.602 41.5582 213.567 41.8371 214.352 42.3949C215.145 42.9453 215.702 43.6976 216.025 44.6516H216.201C216.576 43.7122 217.207 42.9637 218.095 42.4059C218.99 41.8408 220.051 41.5582 221.276 41.5582C222.832 41.5582 224.102 42.05 225.085 43.0334C226.069 44.0168 226.56 45.4516 226.56 47.3377V58.6875H222.564V47.9542C222.564 46.9047 222.285 46.1378 221.728 45.6534C221.17 45.1617 220.487 44.9158 219.68 44.9158C218.719 44.9158 217.966 45.2167 217.423 45.8185C216.888 46.413 216.62 47.1873 216.62 48.1413V58.6875H212.712V47.7891C212.712 46.9157 212.447 46.2185 211.919 45.6974C211.398 45.1764 210.715 44.9158 209.871 44.9158C209.299 44.9158 208.778 45.0626 208.308 45.3562C207.839 45.6424 207.464 46.0497 207.185 46.5781C206.906 47.0992 206.767 47.7083 206.767 48.4055V58.6875H202.782ZM237.979 59.0178C236.328 59.0178 234.897 58.6545 233.686 57.9279C232.475 57.2013 231.535 56.1849 230.867 54.8786C230.207 53.5722 229.877 52.0457 229.877 50.299C229.877 48.5523 230.207 47.0221 230.867 45.7085C231.535 44.3948 232.475 43.3746 233.686 42.6481C234.897 41.9215 236.328 41.5582 237.979 41.5582C239.63 41.5582 241.061 41.9215 242.272 42.6481C243.483 43.3746 244.419 44.3948 245.079 45.7085C245.747 47.0221 246.081 48.5523 246.081 50.299C246.081 52.0457 245.747 53.5722 245.079 54.8786C244.419 56.1849 243.483 57.2013 242.272 57.9279C241.061 58.6545 239.63 59.0178 237.979 59.0178ZM238.001 55.8253C238.896 55.8253 239.645 55.5794 240.247 55.0877C240.849 54.5887 241.296 53.9208 241.59 53.0842C241.891 52.2475 242.041 51.3155 242.041 50.288C242.041 49.2532 241.891 48.3175 241.59 47.4808C241.296 46.6368 240.849 45.9653 240.247 45.4663C239.645 44.9672 238.896 44.7177 238.001 44.7177C237.084 44.7177 236.32 44.9672 235.711 45.4663C235.109 45.9653 234.658 46.6368 234.357 47.4808C234.064 48.3175 233.917 49.2532 233.917 50.288C233.917 51.3155 234.064 52.2475 234.357 53.0842C234.658 53.9208 235.109 54.5887 235.711 55.0877C236.32 55.5794 237.084 55.8253 238.001 55.8253ZM256.839 59.0178C255.151 59.0178 253.702 58.6471 252.491 57.9059C251.287 57.1647 250.359 56.1409 249.706 54.8345C249.06 53.5208 248.737 52.009 248.737 50.299C248.737 48.5817 249.067 47.0662 249.728 45.7525C250.388 44.4315 251.32 43.404 252.524 42.6701C253.735 41.9289 255.166 41.5582 256.817 41.5582C258.19 41.5582 259.404 41.8114 260.461 42.3178C261.525 42.8169 262.373 43.5251 263.004 44.4425C263.635 45.3525 263.995 46.4167 264.083 47.6349H260.274C260.12 46.8203 259.753 46.1415 259.173 45.5984C258.601 45.0479 257.834 44.7727 256.872 44.7727C256.058 44.7727 255.342 44.9929 254.726 45.4332C254.109 45.8662 253.628 46.4901 253.284 47.3047C252.946 48.1193 252.777 49.0954 252.777 50.233C252.777 51.3852 252.946 52.3759 253.284 53.2053C253.621 54.0272 254.095 54.662 254.704 55.1097C255.32 55.5501 256.043 55.7702 256.872 55.7702C257.459 55.7702 257.984 55.6602 258.447 55.44C258.916 55.2125 259.309 54.8859 259.624 54.4602C259.94 54.0346 260.157 53.5172 260.274 52.908H264.083C263.988 54.1043 263.635 55.1648 263.026 56.0895C262.417 57.0069 261.588 57.7261 260.538 58.2472C259.489 58.7609 258.256 59.0178 256.839 59.0178ZM267.355 58.6875V41.7784H271.219V44.5966H271.395C271.704 43.6205 272.232 42.8683 272.981 42.3398C273.736 41.8041 274.599 41.5362 275.568 41.5362C275.788 41.5362 276.034 41.5472 276.305 41.5692C276.584 41.5839 276.815 41.6096 276.999 41.6463V45.3121C276.83 45.2534 276.562 45.2021 276.195 45.158C275.835 45.1067 275.487 45.081 275.149 45.081C274.423 45.081 273.77 45.2388 273.19 45.5543C272.617 45.8626 272.166 46.2919 271.836 46.8423C271.505 47.3928 271.34 48.0276 271.34 48.7468V58.6875H267.355ZM284.209 59.0288C283.138 59.0288 282.173 58.8379 281.314 58.4563C280.463 58.0674 279.787 57.4949 279.288 56.739C278.797 55.9831 278.551 55.051 278.551 53.9428C278.551 52.9888 278.727 52.1998 279.079 51.576C279.432 50.9522 279.912 50.4531 280.521 50.0788C281.131 49.7045 281.817 49.422 282.58 49.2312C283.351 49.033 284.147 48.8899 284.969 48.8018C285.96 48.6991 286.763 48.6074 287.38 48.5266C287.996 48.4386 288.444 48.3065 288.723 48.1303C289.009 47.9469 289.152 47.6643 289.152 47.2827V47.2166C289.152 46.3873 288.906 45.7451 288.415 45.2901C287.923 44.8351 287.215 44.6076 286.29 44.6076C285.314 44.6076 284.54 44.8204 283.967 45.2461C283.402 45.6718 283.02 46.1745 282.822 46.7543L279.101 46.2259C279.395 45.1984 279.879 44.3397 280.554 43.6499C281.23 42.9527 282.055 42.4316 283.031 42.0866C284.007 41.7344 285.086 41.5582 286.268 41.5582C287.082 41.5582 287.893 41.6536 288.701 41.8445C289.508 42.0353 290.246 42.3509 290.913 42.7912C291.581 43.2242 292.117 43.815 292.521 44.5636C292.932 45.3121 293.137 46.2479 293.137 47.3707V58.6875H289.306V56.3647H289.174C288.932 56.8344 288.591 57.2747 288.15 57.6857C287.717 58.0894 287.171 58.416 286.51 58.6655C285.857 58.9077 285.09 59.0288 284.209 59.0288ZM285.244 56.1005C286.044 56.1005 286.738 55.9427 287.325 55.6271C287.912 55.3042 288.363 54.8786 288.679 54.3501C289.002 53.8217 289.163 53.2456 289.163 52.6218V50.6293C289.038 50.732 288.825 50.8274 288.525 50.9155C288.231 51.0036 287.901 51.0806 287.534 51.1467C287.167 51.2127 286.804 51.2714 286.444 51.3228C286.084 51.3742 285.772 51.4182 285.508 51.4549C284.914 51.5356 284.382 51.6677 283.912 51.8512C283.442 52.0347 283.072 52.2915 282.8 52.6218C282.529 52.9447 282.393 53.363 282.393 53.8768C282.393 54.6107 282.661 55.1648 283.196 55.5391C283.732 55.9134 284.415 56.1005 285.244 56.1005ZM305.588 41.7784V44.8608H295.867V41.7784H305.588ZM298.267 37.7273H302.252V53.6016C302.252 54.1373 302.333 54.5483 302.494 54.8345C302.663 55.1134 302.883 55.3042 303.155 55.407C303.426 55.5097 303.727 55.5611 304.058 55.5611C304.307 55.5611 304.535 55.5427 304.74 55.506C304.953 55.4693 305.114 55.4363 305.225 55.407L305.896 58.5224C305.683 58.5958 305.379 58.6765 304.982 58.7646C304.593 58.8526 304.116 58.904 303.551 58.9187C302.553 58.948 301.654 58.7976 300.854 58.4673C300.054 58.1297 299.419 57.6087 298.95 56.9041C298.487 56.1996 298.26 55.3189 298.267 54.2621V37.7273ZM308.921 58.6875V41.7784H312.906V58.6875H308.921ZM310.924 39.3786C310.293 39.3786 309.75 39.1694 309.295 38.7511C308.84 38.3254 308.612 37.8153 308.612 37.2209C308.612 36.6191 308.84 36.109 309.295 35.6907C309.75 35.265 310.293 35.0522 310.924 35.0522C311.563 35.0522 312.106 35.265 312.553 35.6907C313.008 36.109 313.236 36.6191 313.236 37.2209C313.236 37.8153 313.008 38.3254 312.553 38.7511C312.106 39.1694 311.563 39.3786 310.924 39.3786ZM330.368 46.2479L326.735 46.6442C326.632 46.2772 326.453 45.9323 326.196 45.6094C325.946 45.2865 325.609 45.0259 325.183 44.8278C324.757 44.6296 324.236 44.5305 323.62 44.5305C322.79 44.5305 322.093 44.7103 321.528 45.07C320.97 45.4296 320.695 45.8956 320.703 46.468C320.695 46.9598 320.875 47.3597 321.242 47.668C321.616 47.9762 322.233 48.2294 323.091 48.4276L325.976 49.044C327.575 49.389 328.764 49.9357 329.542 50.6843C330.328 51.4329 330.724 52.4126 330.731 53.6236C330.724 54.6877 330.412 55.6271 329.796 56.4418C329.186 57.2491 328.339 57.8802 327.253 58.3352C326.166 58.7902 324.919 59.0178 323.51 59.0178C321.44 59.0178 319.774 58.5848 318.512 57.7188C317.249 56.8454 316.497 55.6308 316.255 54.0749L320.141 53.7006C320.317 54.4639 320.691 55.04 321.264 55.429C321.836 55.8179 322.581 56.0124 323.499 56.0124C324.445 56.0124 325.205 55.8179 325.777 55.429C326.357 55.04 326.647 54.5593 326.647 53.9869C326.647 53.5025 326.46 53.1025 326.086 52.7869C325.719 52.4714 325.146 52.2292 324.368 52.0604L321.484 51.4549C319.862 51.1173 318.662 50.5485 317.884 49.7486C317.106 48.9413 316.721 47.9212 316.728 46.6882C316.721 45.6461 317.004 44.7434 317.576 43.9801C318.156 43.2095 318.959 42.6151 319.987 42.1967C321.022 41.7711 322.214 41.5582 323.565 41.5582C325.546 41.5582 327.106 41.9802 328.243 42.8242C329.388 43.6682 330.096 44.8094 330.368 46.2479ZM341.393 59.0178C339.705 59.0178 338.256 58.6471 337.045 57.9059C335.841 57.1647 334.913 56.1409 334.259 54.8345C333.614 53.5208 333.291 52.009 333.291 50.299C333.291 48.5817 333.621 47.0662 334.282 45.7525C334.942 44.4315 335.874 43.404 337.078 42.6701C338.289 41.9289 339.72 41.5582 341.371 41.5582C342.743 41.5582 343.958 41.8114 345.015 42.3178C346.079 42.8169 346.927 43.5251 347.558 44.4425C348.189 45.3525 348.549 46.4167 348.637 47.6349H344.828C344.674 46.8203 344.307 46.1415 343.727 45.5984C343.154 45.0479 342.387 44.7727 341.426 44.7727C340.611 44.7727 339.896 44.9929 339.279 45.4332C338.663 45.8662 338.182 46.4901 337.837 47.3047C337.5 48.1193 337.331 49.0954 337.331 50.233C337.331 51.3852 337.5 52.3759 337.837 53.2053C338.175 54.0272 338.648 54.662 339.257 55.1097C339.874 55.5501 340.597 55.7702 341.426 55.7702C342.013 55.7702 342.538 55.6602 343 55.44C343.47 55.2125 343.863 54.8859 344.178 54.4602C344.494 54.0346 344.71 53.5172 344.828 52.908H348.637C348.541 54.1043 348.189 55.1648 347.58 56.0895C346.971 57.0069 346.141 57.7261 345.092 58.2472C344.042 58.7609 342.809 59.0178 341.393 59.0178ZM355.894 48.7798V58.6875H351.909V36.142H355.806V44.6516H356.004C356.4 43.6976 357.013 42.9453 357.843 42.3949C358.679 41.8371 359.743 41.5582 361.035 41.5582C362.209 41.5582 363.233 41.8041 364.106 42.2958C364.98 42.7875 365.655 43.5067 366.132 44.4535C366.616 45.4002 366.858 46.5561 366.858 47.9212V58.6875H362.873V48.5376C362.873 47.4001 362.58 46.5157 361.993 45.8846C361.413 45.2461 360.598 44.9268 359.549 44.9268C358.844 44.9268 358.213 45.081 357.655 45.3892C357.105 45.6901 356.672 46.1268 356.356 46.6992C356.048 47.2717 355.894 47.9652 355.894 48.7798ZM378.406 59.0178C376.711 59.0178 375.247 58.6655 374.014 57.9609C372.788 57.2491 371.845 56.2436 371.185 54.9446C370.524 53.6383 370.194 52.1007 370.194 50.332C370.194 48.5927 370.524 47.0662 371.185 45.7525C371.853 44.4315 372.785 43.404 373.981 42.6701C375.177 41.9289 376.583 41.5582 378.197 41.5582C379.239 41.5582 380.223 41.727 381.148 42.0646C382.08 42.3949 382.902 42.9086 383.613 43.6058C384.333 44.303 384.898 45.1911 385.309 46.2699C385.72 47.3414 385.925 48.6184 385.925 50.1009V51.3228H372.066V48.6367H382.105C382.098 47.8735 381.933 47.1946 381.61 46.6001C381.287 45.9983 380.836 45.525 380.256 45.18C379.683 44.8351 379.016 44.6626 378.252 44.6626C377.438 44.6626 376.722 44.8608 376.106 45.2571C375.489 45.6461 375.008 46.1598 374.664 46.7983C374.326 47.4295 374.153 48.123 374.146 48.8789V51.2237C374.146 52.2071 374.326 53.0511 374.686 53.7557C375.045 54.4529 375.548 54.9886 376.194 55.3629C376.84 55.7299 377.595 55.9134 378.461 55.9134C379.041 55.9134 379.566 55.8326 380.036 55.6712C380.505 55.5024 380.913 55.2565 381.258 54.9336C381.603 54.6107 381.863 54.2107 382.039 53.7337L385.76 54.152C385.525 55.1354 385.078 55.9941 384.417 56.728C383.764 57.4545 382.927 58.0196 381.907 58.4233C380.887 58.8196 379.72 59.0178 378.406 59.0178Z" fill="#3549E3"/>
<path d="M164.119 96.6875V74.142H172.75C174.379 74.142 175.733 74.3989 176.812 74.9126C177.898 75.419 178.709 76.1126 179.245 76.9933C179.788 77.8739 180.06 78.872 180.06 79.9876C180.06 80.9049 179.883 81.6902 179.531 82.3434C179.179 82.9892 178.706 83.514 178.111 83.9176C177.517 84.3213 176.852 84.6112 176.119 84.7873V85.0075C176.918 85.0515 177.685 85.2973 178.419 85.745C179.161 86.1854 179.766 86.8092 180.236 87.6165C180.705 88.4238 180.94 89.3999 180.94 90.5447C180.94 91.7116 180.658 92.7611 180.093 93.6932C179.527 94.6179 178.676 95.3481 177.539 95.8839C176.401 96.4196 174.97 96.6875 173.245 96.6875H164.119ZM168.203 93.2749H172.596C174.078 93.2749 175.146 92.9923 175.799 92.4272C176.46 91.8548 176.79 91.1209 176.79 90.2255C176.79 89.5576 176.625 88.9558 176.295 88.4201C175.964 87.877 175.495 87.4513 174.886 87.1431C174.276 86.8275 173.55 86.6697 172.706 86.6697H168.203V93.2749ZM168.203 83.7305H172.244C172.948 83.7305 173.583 83.602 174.148 83.3452C174.713 83.081 175.157 82.7103 175.48 82.2333C175.81 81.7489 175.975 81.1765 175.975 80.516C175.975 79.6426 175.667 78.9234 175.051 78.3583C174.442 77.7932 173.535 77.5107 172.332 77.5107H168.203V83.7305ZM184.317 96.6875V79.7784H188.302V96.6875H184.317ZM186.321 77.3786C185.69 77.3786 185.146 77.1694 184.691 76.7511C184.236 76.3254 184.009 75.8153 184.009 75.2209C184.009 74.6191 184.236 74.109 184.691 73.6907C185.146 73.265 185.69 73.0522 186.321 73.0522C186.959 73.0522 187.502 73.265 187.95 73.6907C188.405 74.109 188.632 74.6191 188.632 75.2209C188.632 75.8153 188.405 76.3254 187.95 76.7511C187.502 77.1694 186.959 77.3786 186.321 77.3786ZM199.776 97.0178C198.125 97.0178 196.693 96.6545 195.483 95.9279C194.272 95.2013 193.332 94.1849 192.664 92.8786C192.004 91.5722 191.674 90.0457 191.674 88.299C191.674 86.5523 192.004 85.0221 192.664 83.7085C193.332 82.3948 194.272 81.3746 195.483 80.6481C196.693 79.9215 198.125 79.5582 199.776 79.5582C201.427 79.5582 202.858 79.9215 204.069 80.6481C205.28 81.3746 206.216 82.3948 206.876 83.7085C207.544 85.0221 207.878 86.5523 207.878 88.299C207.878 90.0457 207.544 91.5722 206.876 92.8786C206.216 94.1849 205.28 95.2013 204.069 95.9279C202.858 96.6545 201.427 97.0178 199.776 97.0178ZM199.798 93.8253C200.693 93.8253 201.442 93.5794 202.044 93.0877C202.645 92.5887 203.093 91.9208 203.387 91.0842C203.688 90.2475 203.838 89.3155 203.838 88.288C203.838 87.2532 203.688 86.3175 203.387 85.4808C203.093 84.6368 202.645 83.9653 202.044 83.4663C201.442 82.9672 200.693 82.7177 199.798 82.7177C198.88 82.7177 198.117 82.9672 197.508 83.4663C196.906 83.9653 196.455 84.6368 196.154 85.4808C195.86 86.3175 195.714 87.2532 195.714 88.288C195.714 89.3155 195.86 90.2475 196.154 91.0842C196.455 91.9208 196.906 92.5887 197.508 93.0877C198.117 93.5794 198.88 93.8253 199.798 93.8253ZM224.625 84.2479L220.992 84.6442C220.889 84.2772 220.709 83.9323 220.453 83.6094C220.203 83.2865 219.865 83.0259 219.44 82.8278C219.014 82.6296 218.493 82.5305 217.877 82.5305C217.047 82.5305 216.35 82.7103 215.785 83.07C215.227 83.4296 214.952 83.8956 214.959 84.468C214.952 84.9598 215.132 85.3597 215.499 85.668C215.873 85.9762 216.49 86.2294 217.348 86.4276L220.232 87.044C221.832 87.389 223.021 87.9357 223.799 88.6843C224.584 89.4329 224.981 90.4126 224.988 91.6236C224.981 92.6877 224.669 93.6271 224.052 94.4418C223.443 95.2491 222.596 95.8802 221.509 96.3352C220.423 96.7902 219.176 97.0178 217.767 97.0178C215.697 97.0178 214.031 96.5848 212.769 95.7188C211.506 94.8454 210.754 93.6308 210.512 92.0749L214.398 91.7006C214.574 92.4639 214.948 93.04 215.521 93.429C216.093 93.8179 216.838 94.0124 217.756 94.0124C218.702 94.0124 219.462 93.8179 220.034 93.429C220.614 93.04 220.904 92.5593 220.904 91.9869C220.904 91.5025 220.717 91.1025 220.343 90.7869C219.976 90.4714 219.403 90.2292 218.625 90.0604L215.741 89.4549C214.119 89.1173 212.919 88.5485 212.141 87.7486C211.363 86.9413 210.978 85.9212 210.985 84.6882C210.978 83.6461 211.26 82.7434 211.833 81.9801C212.413 81.2095 213.216 80.6151 214.244 80.1967C215.279 79.7711 216.471 79.5582 217.822 79.5582C219.803 79.5582 221.363 79.9802 222.5 80.8242C223.645 81.6682 224.353 82.8094 224.625 84.2479ZM235.65 97.0178C233.962 97.0178 232.512 96.6471 231.301 95.9059C230.098 95.1647 229.17 94.1409 228.516 92.8345C227.871 91.5208 227.548 90.009 227.548 88.299C227.548 86.5817 227.878 85.0662 228.538 83.7525C229.199 82.4315 230.131 81.404 231.335 80.6701C232.545 79.9289 233.977 79.5582 235.628 79.5582C237 79.5582 238.215 79.8114 239.272 80.3178C240.336 80.8169 241.183 81.5251 241.815 82.4425C242.446 83.3525 242.805 84.4167 242.893 85.6349H239.085C238.93 84.8203 238.563 84.1415 237.984 83.5984C237.411 83.0479 236.644 82.7727 235.683 82.7727C234.868 82.7727 234.153 82.9929 233.536 83.4332C232.92 83.8662 232.439 84.4901 232.094 85.3047C231.757 86.1193 231.588 87.0954 231.588 88.233C231.588 89.3852 231.757 90.3759 232.094 91.2053C232.432 92.0272 232.905 92.662 233.514 93.1097C234.131 93.5501 234.854 93.7702 235.683 93.7702C236.27 93.7702 236.795 93.6602 237.257 93.44C237.727 93.2125 238.119 92.8859 238.435 92.4602C238.751 92.0346 238.967 91.5172 239.085 90.908H242.893C242.798 92.1043 242.446 93.1648 241.837 94.0895C241.228 95.0069 240.398 95.7261 239.349 96.2472C238.299 96.7609 237.066 97.0178 235.65 97.0178ZM253.541 97.0178C251.89 97.0178 250.459 96.6545 249.248 95.9279C248.037 95.2013 247.098 94.1849 246.43 92.8786C245.769 91.5722 245.439 90.0457 245.439 88.299C245.439 86.5523 245.769 85.0221 246.43 83.7085C247.098 82.3948 248.037 81.3746 249.248 80.6481C250.459 79.9215 251.89 79.5582 253.541 79.5582C255.193 79.5582 256.624 79.9215 257.835 80.6481C259.046 81.3746 259.981 82.3948 260.642 83.7085C261.31 85.0221 261.644 86.5523 261.644 88.299C261.644 90.0457 261.31 91.5722 260.642 92.8786C259.981 94.1849 259.046 95.2013 257.835 95.9279C256.624 96.6545 255.193 97.0178 253.541 97.0178ZM253.563 93.8253C254.459 93.8253 255.207 93.5794 255.809 93.0877C256.411 92.5887 256.859 91.9208 257.152 91.0842C257.453 90.2475 257.604 89.3155 257.604 88.288C257.604 87.2532 257.453 86.3175 257.152 85.4808C256.859 84.6368 256.411 83.9653 255.809 83.4663C255.207 82.9672 254.459 82.7177 253.563 82.7177C252.646 82.7177 251.883 82.9672 251.274 83.4663C250.672 83.9653 250.221 84.6368 249.92 85.4808C249.626 86.3175 249.479 87.2532 249.479 88.288C249.479 89.3155 249.626 90.2475 249.92 91.0842C250.221 91.9208 250.672 92.5887 251.274 93.0877C251.883 93.5794 252.646 93.8253 253.563 93.8253ZM272.402 97.0178C270.751 97.0178 269.319 96.6545 268.108 95.9279C266.898 95.2013 265.958 94.1849 265.29 92.8786C264.63 91.5722 264.3 90.0457 264.3 88.299C264.3 86.5523 264.63 85.0221 265.29 83.7085C265.958 82.3948 266.898 81.3746 268.108 80.6481C269.319 79.9215 270.751 79.5582 272.402 79.5582C274.053 79.5582 275.484 79.9215 276.695 80.6481C277.906 81.3746 278.842 82.3948 279.502 83.7085C280.17 85.0221 280.504 86.5523 280.504 88.299C280.504 90.0457 280.17 91.5722 279.502 92.8786C278.842 94.1849 277.906 95.2013 276.695 95.9279C275.484 96.6545 274.053 97.0178 272.402 97.0178ZM272.424 93.8253C273.319 93.8253 274.068 93.5794 274.67 93.0877C275.271 92.5887 275.719 91.9208 276.013 91.0842C276.314 90.2475 276.464 89.3155 276.464 88.288C276.464 87.2532 276.314 86.3175 276.013 85.4808C275.719 84.6368 275.271 83.9653 274.67 83.4663C274.068 82.9672 273.319 82.7177 272.424 82.7177C271.506 82.7177 270.743 82.9672 270.134 83.4663C269.532 83.9653 269.081 84.6368 268.78 85.4808C268.486 86.3175 268.34 87.2532 268.34 88.288C268.34 89.3155 268.486 90.2475 268.78 91.0842C269.081 91.9208 269.532 92.5887 270.134 93.0877C270.743 93.5794 271.506 93.8253 272.424 93.8253ZM283.886 103.028V79.7784H287.805V82.5746H288.037C288.242 82.1636 288.532 81.7269 288.906 81.2646C289.281 80.7949 289.787 80.3949 290.426 80.0646C291.064 79.727 291.879 79.5582 292.869 79.5582C294.176 79.5582 295.354 79.8922 296.403 80.56C297.46 81.2205 298.297 82.2003 298.913 83.4993C299.537 84.791 299.849 86.3762 299.849 88.255C299.849 90.1117 299.544 91.6896 298.935 92.9886C298.326 94.2876 297.497 95.2784 296.447 95.9609C295.398 96.6435 294.209 96.9847 292.88 96.9847C291.912 96.9847 291.108 96.8233 290.47 96.5004C289.831 96.1774 289.317 95.7885 288.928 95.3335C288.547 94.8711 288.249 94.4344 288.037 94.0234H287.872V103.028H283.886ZM287.794 88.233C287.794 89.3265 287.949 90.2842 288.257 91.1062C288.572 91.9281 289.024 92.5703 289.611 93.0327C290.205 93.4877 290.925 93.7152 291.769 93.7152C292.649 93.7152 293.387 93.4804 293.981 93.0107C294.576 92.5336 295.023 91.8841 295.324 91.0621C295.633 90.2328 295.787 89.2898 295.787 88.233C295.787 87.1835 295.636 86.2514 295.335 85.4368C295.034 84.6222 294.587 83.9837 293.992 83.5213C293.398 83.0589 292.657 82.8278 291.769 82.8278C290.917 82.8278 290.194 83.0516 289.6 83.4993C289.005 83.947 288.554 84.5745 288.246 85.3817C287.945 86.189 287.794 87.1394 287.794 88.233Z" fill="#3549E3"/>
<path d="M41.5503 163.688H37.8121V153.142H41.5812C42.642 153.142 43.5551 153.353 44.3206 153.775C45.0861 154.194 45.6748 154.797 46.0867 155.583C46.5021 156.369 46.7098 157.309 46.7098 158.404C46.7098 159.503 46.5021 160.447 46.0867 161.237C45.6748 162.026 45.0827 162.632 44.3103 163.054C43.5413 163.476 42.6214 163.688 41.5503 163.688ZM40.0416 161.777H41.4577C42.1167 161.777 42.6711 161.66 43.1208 161.427C43.574 161.19 43.9138 160.825 44.1404 160.33C44.3704 159.833 44.4854 159.191 44.4854 158.404C44.4854 157.625 44.3704 156.988 44.1404 156.494C43.9138 156 43.5757 155.636 43.126 155.403C42.6763 155.169 42.1219 155.052 41.4628 155.052H40.0416V161.777ZM51.9246 163.842C51.111 163.842 50.4107 163.677 49.8237 163.348C49.2402 163.015 48.7905 162.544 48.4747 161.937C48.1588 161.326 48.0009 160.603 48.0009 159.769C48.0009 158.955 48.1588 158.241 48.4747 157.627C48.7905 157.012 49.235 156.534 49.8083 156.19C50.385 155.847 51.0612 155.675 51.837 155.675C52.3588 155.675 52.8446 155.76 53.2943 155.928C53.7474 156.093 54.1421 156.341 54.4786 156.674C54.8184 157.007 55.0827 157.426 55.2715 157.931C55.4603 158.432 55.5547 159.019 55.5547 159.692V160.294H48.8763V158.935H53.4899C53.4899 158.619 53.4213 158.339 53.284 158.096C53.1466 157.852 52.9561 157.661 52.7124 157.524C52.4721 157.383 52.1923 157.313 51.8731 157.313C51.5401 157.313 51.2449 157.39 50.9874 157.545C50.7334 157.696 50.5343 157.9 50.3901 158.157C50.246 158.411 50.1722 158.695 50.1687 159.007V160.299C50.1687 160.691 50.2408 161.029 50.385 161.314C50.5326 161.599 50.7403 161.818 51.008 161.973C51.2758 162.127 51.5933 162.205 51.9606 162.205C52.2044 162.205 52.4275 162.17 52.63 162.102C52.8325 162.033 53.0059 161.93 53.1501 161.793C53.2943 161.655 53.4041 161.487 53.4796 161.288L55.5084 161.422C55.4054 161.909 55.1943 162.335 54.875 162.699C54.5592 163.059 54.1507 163.341 53.6495 163.543C53.1518 163.742 52.5768 163.842 51.9246 163.842ZM63.9466 163.842C63.133 163.842 62.4327 163.677 61.8457 163.348C61.2621 163.015 60.8124 162.544 60.4966 161.937C60.1808 161.326 60.0229 160.603 60.0229 159.769C60.0229 158.955 60.1808 158.241 60.4966 157.627C60.8124 157.012 61.257 156.534 61.8303 156.19C62.407 155.847 63.0832 155.675 63.859 155.675C64.3808 155.675 64.8665 155.76 65.3162 155.928C65.7694 156.093 66.1641 156.341 66.5005 156.674C66.8404 157.007 67.1047 157.426 67.2935 157.931C67.4823 158.432 67.5767 159.019 67.5767 159.692V160.294H60.8983V158.935H65.5119C65.5119 158.619 65.4432 158.339 65.3059 158.096C65.1686 157.852 64.9781 157.661 64.7344 157.524C64.4941 157.383 64.2143 157.313 63.8951 157.313C63.5621 157.313 63.2669 157.39 63.0094 157.545C62.7554 157.696 62.5563 157.9 62.4121 158.157C62.2679 158.411 62.1941 158.695 62.1907 159.007V160.299C62.1907 160.691 62.2628 161.029 62.407 161.314C62.5546 161.599 62.7623 161.818 63.03 161.973C63.2978 162.127 63.6153 162.205 63.9826 162.205C64.2263 162.205 64.4495 162.17 64.652 162.102C64.8545 162.033 65.0279 161.93 65.1721 161.793C65.3162 161.655 65.4261 161.487 65.5016 161.288L67.5304 161.422C67.4274 161.909 67.2163 162.335 66.897 162.699C66.5812 163.059 66.1727 163.341 65.6715 163.543C65.1738 163.742 64.5988 163.842 63.9466 163.842ZM72.6126 163.842C71.799 163.842 71.0987 163.677 70.5117 163.348C69.9281 163.015 69.4785 162.544 69.1626 161.937C68.8468 161.326 68.6889 160.603 68.6889 159.769C68.6889 158.955 68.8468 158.241 69.1626 157.627C69.4785 157.012 69.923 156.534 70.4963 156.19C71.073 155.847 71.7492 155.675 72.525 155.675C73.0468 155.675 73.5326 155.76 73.9822 155.928C74.4354 156.093 74.8301 156.341 75.1665 156.674C75.5064 157.007 75.7707 157.426 75.9595 157.931C76.1483 158.432 76.2427 159.019 76.2427 159.692V160.294H69.5643V158.935H74.1779C74.1779 158.619 74.1093 158.339 73.9719 158.096C73.8346 157.852 73.6441 157.661 73.4004 157.524C73.1601 157.383 72.8803 157.313 72.5611 157.313C72.2281 157.313 71.9329 157.39 71.6754 157.545C71.4214 157.696 71.2223 157.9 71.0781 158.157C70.9339 158.411 70.8601 158.695 70.8567 159.007V160.299C70.8567 160.691 70.9288 161.029 71.073 161.314C71.2206 161.599 71.4283 161.818 71.696 161.973C71.9638 162.127 72.2813 162.205 72.6486 162.205C72.8923 162.205 73.1155 162.17 73.318 162.102C73.5205 162.033 73.6939 161.93 73.8381 161.793C73.9822 161.655 74.0921 161.487 74.1676 161.288L76.1964 161.422C76.0934 161.909 75.8823 162.335 75.563 162.699C75.2472 163.059 74.8387 163.341 74.3375 163.543C73.8398 163.742 73.2648 163.842 72.6126 163.842ZM77.6742 163.688V155.778H79.8008V157.158H79.8832C80.0273 156.667 80.2694 156.297 80.6092 156.046C80.949 155.792 81.3404 155.665 81.7832 155.665C81.8931 155.665 82.0115 155.672 82.1385 155.686C82.2655 155.699 82.3771 155.718 82.4732 155.742V157.689C82.3702 157.658 82.2277 157.63 82.0458 157.606C81.8639 157.582 81.6974 157.57 81.5463 157.57C81.2237 157.57 80.9353 157.641 80.6813 157.781C80.4307 157.919 80.2316 158.111 80.084 158.358C79.9398 158.605 79.8677 158.89 79.8677 159.213V163.688H77.6742ZM90.1879 158.034L88.1797 158.157C88.1454 157.986 88.0716 157.831 87.9583 157.694C87.845 157.553 87.6957 157.442 87.5103 157.359C87.3284 157.273 87.1104 157.23 86.8564 157.23C86.5166 157.23 86.2299 157.303 85.9965 157.447C85.7631 157.587 85.6464 157.776 85.6464 158.013C85.6464 158.202 85.7219 158.362 85.8729 158.492C86.024 158.622 86.2831 158.727 86.6504 158.806L88.0819 159.094C88.8508 159.252 89.4241 159.506 89.8017 159.857C90.1793 160.207 90.3681 160.667 90.3681 161.237C90.3681 161.755 90.2154 162.21 89.9098 162.601C89.6078 162.992 89.1924 163.298 88.6638 163.518C88.1385 163.734 87.5327 163.842 86.8461 163.842C85.7991 163.842 84.9649 163.624 84.3436 163.188C83.7257 162.749 83.3636 162.151 83.2571 161.396L85.4146 161.283C85.4799 161.602 85.6378 161.846 85.8884 162.014C86.139 162.179 86.4599 162.261 86.8513 162.261C87.2357 162.261 87.5447 162.187 87.7781 162.04C88.015 161.889 88.1351 161.695 88.1385 161.458C88.1351 161.259 88.051 161.096 87.8862 160.969C87.7215 160.838 87.4674 160.739 87.1242 160.67L85.7545 160.397C84.9821 160.243 84.4071 159.975 84.0295 159.594C83.6553 159.213 83.4683 158.727 83.4683 158.137C83.4683 157.629 83.6056 157.191 83.8802 156.824C84.1582 156.456 84.5479 156.173 85.0491 155.974C85.5537 155.775 86.1441 155.675 86.8204 155.675C87.8193 155.675 88.6054 155.887 89.1787 156.309C89.7554 156.731 90.0918 157.306 90.1879 158.034ZM95.9562 155.778V157.426H91.1933V155.778H95.9562ZM92.2746 153.884H94.4681V161.257C94.4681 161.46 94.499 161.618 94.5608 161.731C94.6226 161.841 94.7084 161.918 94.8183 161.963C94.9316 162.007 95.062 162.029 95.2096 162.029C95.3126 162.029 95.4156 162.021 95.5186 162.004C95.6215 161.983 95.7005 161.968 95.7554 161.957L96.1004 163.59C95.9906 163.624 95.8361 163.663 95.637 163.708C95.4379 163.756 95.1959 163.785 94.911 163.796C94.3823 163.816 93.9189 163.746 93.5207 163.585C93.1259 163.423 92.8187 163.173 92.599 162.833C92.3793 162.493 92.2712 162.064 92.2746 161.545V153.884ZM100.905 163.842C100.091 163.842 99.3907 163.677 98.8037 163.348C98.2201 163.015 97.7704 162.544 97.4546 161.937C97.1388 161.326 96.9809 160.603 96.9809 159.769C96.9809 158.955 97.1388 158.241 97.4546 157.627C97.7704 157.012 98.215 156.534 98.7883 156.19C99.365 155.847 100.041 155.675 100.817 155.675C101.339 155.675 101.825 155.76 102.274 155.928C102.727 156.093 103.122 156.341 103.459 156.674C103.798 157.007 104.063 157.426 104.252 157.931C104.44 158.432 104.535 159.019 104.535 159.692V160.294H97.8563V158.935H102.47C102.47 158.619 102.401 158.339 102.264 158.096C102.127 157.852 101.936 157.661 101.692 157.524C101.452 157.383 101.172 157.313 100.853 157.313C100.52 157.313 100.225 157.39 99.9674 157.545C99.7134 157.696 99.5143 157.9 99.3701 158.157C99.2259 158.411 99.1521 158.695 99.1487 159.007V160.299C99.1487 160.691 99.2208 161.029 99.365 161.314C99.5126 161.599 99.7203 161.818 99.988 161.973C100.256 162.127 100.573 162.205 100.941 162.205C101.184 162.205 101.407 162.17 101.61 162.102C101.813 162.033 101.986 161.93 102.13 161.793C102.274 161.655 102.384 161.487 102.46 161.288L104.488 161.422C104.385 161.909 104.174 162.335 103.855 162.699C103.539 163.059 103.131 163.341 102.63 163.543C102.132 163.742 101.557 163.842 100.905 163.842ZM109.363 163.688V153.142H111.557V157.107H111.624C111.72 156.894 111.859 156.678 112.041 156.458C112.226 156.235 112.467 156.05 112.762 155.902C113.06 155.751 113.431 155.675 113.874 155.675C114.451 155.675 114.983 155.826 115.47 156.129C115.958 156.427 116.347 156.879 116.639 157.483C116.931 158.084 117.077 158.837 117.077 159.743C117.077 160.625 116.934 161.37 116.649 161.978C116.368 162.582 115.983 163.04 115.496 163.353C115.012 163.662 114.47 163.816 113.869 163.816C113.443 163.816 113.081 163.746 112.782 163.605C112.487 163.464 112.245 163.288 112.056 163.075C111.868 162.858 111.723 162.641 111.624 162.421H111.526V163.688H109.363ZM111.511 159.733C111.511 160.203 111.576 160.613 111.706 160.964C111.837 161.314 112.025 161.587 112.273 161.782C112.52 161.975 112.82 162.071 113.174 162.071C113.531 162.071 113.833 161.973 114.08 161.777C114.327 161.578 114.514 161.303 114.641 160.953C114.772 160.6 114.837 160.193 114.837 159.733C114.837 159.276 114.773 158.875 114.646 158.528C114.519 158.181 114.332 157.91 114.085 157.714C113.838 157.519 113.534 157.421 113.174 157.421C112.817 157.421 112.515 157.515 112.267 157.704C112.024 157.893 111.837 158.161 111.706 158.507C111.576 158.854 111.511 159.263 111.511 159.733ZM118.54 163.688V155.778H120.734V163.688H118.54ZM119.642 154.759C119.316 154.759 119.036 154.651 118.803 154.434C118.573 154.215 118.458 153.952 118.458 153.647C118.458 153.345 118.573 153.085 118.803 152.869C119.036 152.649 119.316 152.54 119.642 152.54C119.968 152.54 120.246 152.649 120.476 152.869C120.71 153.085 120.827 153.345 120.827 153.647C120.827 153.952 120.71 154.215 120.476 154.434C120.246 154.651 119.968 154.759 119.642 154.759ZM126.065 163.842C125.265 163.842 124.573 163.672 123.989 163.332C123.409 162.989 122.961 162.512 122.646 161.901C122.33 161.286 122.172 160.574 122.172 159.764C122.172 158.947 122.33 158.233 122.646 157.622C122.961 157.007 123.409 156.53 123.989 156.19C124.573 155.847 125.265 155.675 126.065 155.675C126.864 155.675 127.554 155.847 128.135 156.19C128.718 156.53 129.168 157.007 129.484 157.622C129.799 158.233 129.957 158.947 129.957 159.764C129.957 160.574 129.799 161.286 129.484 161.901C129.168 162.512 128.718 162.989 128.135 163.332C127.554 163.672 126.864 163.842 126.065 163.842ZM126.075 162.143C126.439 162.143 126.743 162.04 126.986 161.834C127.23 161.624 127.414 161.339 127.537 160.979C127.664 160.619 127.728 160.208 127.728 159.748C127.728 159.288 127.664 158.878 127.537 158.518C127.414 158.157 127.23 157.872 126.986 157.663C126.743 157.454 126.439 157.349 126.075 157.349C125.708 157.349 125.399 157.454 125.148 157.663C124.901 157.872 124.714 158.157 124.587 158.518C124.463 158.878 124.401 159.288 124.401 159.748C124.401 160.208 124.463 160.619 124.587 160.979C124.714 161.339 124.901 161.624 125.148 161.834C125.399 162.04 125.708 162.143 126.075 162.143ZM137.964 158.034L135.956 158.157C135.922 157.986 135.848 157.831 135.735 157.694C135.621 157.553 135.472 157.442 135.287 157.359C135.105 157.273 134.887 157.23 134.633 157.23C134.293 157.23 134.006 157.303 133.773 157.447C133.539 157.587 133.423 157.776 133.423 158.013C133.423 158.202 133.498 158.362 133.649 158.492C133.8 158.622 134.059 158.727 134.427 158.806L135.858 159.094C136.627 159.252 137.2 159.506 137.578 159.857C137.956 160.207 138.144 160.667 138.144 161.237C138.144 161.755 137.992 162.21 137.686 162.601C137.384 162.992 136.969 163.298 136.44 163.518C135.915 163.734 135.309 163.842 134.622 163.842C133.575 163.842 132.741 163.624 132.12 163.188C131.502 162.749 131.14 162.151 131.034 161.396L133.191 161.283C133.256 161.602 133.414 161.846 133.665 162.014C133.915 162.179 134.236 162.261 134.628 162.261C135.012 162.261 135.321 162.187 135.554 162.04C135.791 161.889 135.911 161.695 135.915 161.458C135.911 161.259 135.827 161.096 135.663 160.969C135.498 160.838 135.244 160.739 134.901 160.67L133.531 160.397C132.758 160.243 132.183 159.975 131.806 159.594C131.432 159.213 131.245 158.727 131.245 158.137C131.245 157.629 131.382 157.191 131.657 156.824C131.935 156.456 132.324 156.173 132.825 155.974C133.33 155.775 133.92 155.675 134.597 155.675C135.596 155.675 136.382 155.887 136.955 156.309C137.532 156.731 137.868 157.306 137.964 158.034ZM143.099 163.842C142.289 163.842 141.592 163.67 141.009 163.327C140.429 162.98 139.982 162.5 139.67 161.885C139.361 161.271 139.206 160.564 139.206 159.764C139.206 158.954 139.363 158.243 139.675 157.632C139.991 157.018 140.439 156.539 141.019 156.195C141.599 155.849 142.289 155.675 143.089 155.675C143.779 155.675 144.383 155.801 144.901 156.051C145.42 156.302 145.83 156.654 146.132 157.107C146.434 157.56 146.601 158.092 146.632 158.703H144.562C144.503 158.308 144.349 157.991 144.098 157.751C143.851 157.507 143.527 157.385 143.125 157.385C142.785 157.385 142.488 157.478 142.234 157.663C141.984 157.845 141.788 158.111 141.647 158.461C141.506 158.811 141.436 159.235 141.436 159.733C141.436 160.238 141.505 160.667 141.642 161.02C141.783 161.374 141.98 161.643 142.234 161.829C142.488 162.014 142.785 162.107 143.125 162.107C143.376 162.107 143.6 162.055 143.8 161.952C144.002 161.849 144.169 161.7 144.299 161.504C144.433 161.305 144.52 161.067 144.562 160.789H146.632C146.597 161.393 146.432 161.925 146.137 162.385C145.845 162.841 145.442 163.198 144.927 163.456C144.412 163.713 143.803 163.842 143.099 163.842ZM151.61 163.842C150.81 163.842 150.118 163.672 149.534 163.332C148.954 162.989 148.506 162.512 148.19 161.901C147.875 161.286 147.717 160.574 147.717 159.764C147.717 158.947 147.875 158.233 148.19 157.622C148.506 157.007 148.954 156.53 149.534 156.19C150.118 155.847 150.81 155.675 151.61 155.675C152.409 155.675 153.099 155.847 153.679 156.19C154.263 156.53 154.713 157.007 155.029 157.622C155.344 158.233 155.502 158.947 155.502 159.764C155.502 160.574 155.344 161.286 155.029 161.901C154.713 162.512 154.263 162.989 153.679 163.332C153.099 163.672 152.409 163.842 151.61 163.842ZM151.62 162.143C151.984 162.143 152.287 162.04 152.531 161.834C152.775 161.624 152.959 161.339 153.082 160.979C153.209 160.619 153.273 160.208 153.273 159.748C153.273 159.288 153.209 158.878 153.082 158.518C152.959 158.157 152.775 157.872 152.531 157.663C152.287 157.454 151.984 157.349 151.62 157.349C151.253 157.349 150.944 157.454 150.693 157.663C150.446 157.872 150.259 158.157 150.132 158.518C150.008 158.878 149.946 159.288 149.946 159.748C149.946 160.208 150.008 160.619 150.132 160.979C150.259 161.339 150.446 161.624 150.693 161.834C150.944 162.04 151.253 162.143 151.62 162.143ZM160.502 163.842C159.702 163.842 159.011 163.672 158.427 163.332C157.847 162.989 157.399 162.512 157.083 161.901C156.767 161.286 156.609 160.574 156.609 159.764C156.609 158.947 156.767 158.233 157.083 157.622C157.399 157.007 157.847 156.53 158.427 156.19C159.011 155.847 159.702 155.675 160.502 155.675C161.302 155.675 161.992 155.847 162.572 156.19C163.156 156.53 163.605 157.007 163.921 157.622C164.237 158.233 164.395 158.947 164.395 159.764C164.395 160.574 164.237 161.286 163.921 161.901C163.605 162.512 163.156 162.989 162.572 163.332C161.992 163.672 161.302 163.842 160.502 163.842ZM160.512 162.143C160.876 162.143 161.18 162.04 161.424 161.834C161.668 161.624 161.851 161.339 161.975 160.979C162.102 160.619 162.165 160.208 162.165 159.748C162.165 159.288 162.102 158.878 161.975 158.518C161.851 158.157 161.668 157.872 161.424 157.663C161.18 157.454 160.876 157.349 160.512 157.349C160.145 157.349 159.836 157.454 159.586 157.663C159.338 157.872 159.151 158.157 159.024 158.518C158.901 158.878 158.839 159.288 158.839 159.748C158.839 160.208 158.901 160.619 159.024 160.979C159.151 161.339 159.338 161.624 159.586 161.834C159.836 162.04 160.145 162.143 160.512 162.143ZM165.821 166.653V155.778H167.984V157.107H168.082C168.178 156.894 168.317 156.678 168.499 156.458C168.684 156.235 168.924 156.05 169.22 155.902C169.518 155.751 169.889 155.675 170.332 155.675C170.909 155.675 171.441 155.826 171.928 156.129C172.415 156.427 172.805 156.879 173.097 157.483C173.389 158.084 173.535 158.837 173.535 159.743C173.535 160.625 173.392 161.37 173.107 161.978C172.826 162.582 172.441 163.04 171.954 163.353C171.47 163.662 170.927 163.816 170.327 163.816C169.901 163.816 169.539 163.746 169.24 163.605C168.945 163.464 168.703 163.288 168.514 163.075C168.325 162.858 168.181 162.641 168.082 162.421H168.015V166.653H165.821ZM167.968 159.733C167.968 160.203 168.034 160.613 168.164 160.964C168.294 161.314 168.483 161.587 168.73 161.782C168.978 161.975 169.278 162.071 169.632 162.071C169.989 162.071 170.291 161.973 170.538 161.777C170.785 161.578 170.972 161.303 171.099 160.953C171.229 160.6 171.295 160.193 171.295 159.733C171.295 159.276 171.231 158.875 171.104 158.528C170.977 158.181 170.79 157.91 170.543 157.714C170.296 157.519 169.992 157.421 169.632 157.421C169.275 157.421 168.972 157.515 168.725 157.704C168.482 157.893 168.294 158.161 168.164 158.507C168.034 158.854 167.968 159.263 167.968 159.733ZM179.913 163.688L177.761 155.778H179.98L181.206 161.092H181.278L182.555 155.778H184.733L186.03 161.061H186.097L187.302 155.778H189.516L187.369 163.688H185.047L183.687 158.713H183.59L182.23 163.688H179.913ZM192.942 163.837C192.437 163.837 191.987 163.749 191.593 163.574C191.198 163.396 190.885 163.133 190.655 162.786C190.429 162.436 190.316 162 190.316 161.479C190.316 161.039 190.396 160.67 190.558 160.371C190.719 160.073 190.939 159.833 191.217 159.651C191.495 159.469 191.811 159.331 192.164 159.239C192.521 159.146 192.895 159.081 193.287 159.043C193.747 158.995 194.117 158.95 194.399 158.909C194.68 158.864 194.885 158.799 195.012 158.713C195.139 158.628 195.202 158.501 195.202 158.332V158.301C195.202 157.975 195.099 157.723 194.893 157.545C194.691 157.366 194.402 157.277 194.028 157.277C193.633 157.277 193.319 157.364 193.086 157.539C192.852 157.711 192.698 157.927 192.622 158.188L190.594 158.023C190.697 157.543 190.899 157.127 191.201 156.777C191.503 156.424 191.893 156.153 192.37 155.964C192.851 155.772 193.407 155.675 194.038 155.675C194.478 155.675 194.898 155.727 195.3 155.83C195.705 155.933 196.064 156.093 196.376 156.309C196.692 156.525 196.941 156.803 197.123 157.143C197.305 157.479 197.396 157.883 197.396 158.353V163.688H195.315V162.591H195.254C195.127 162.838 194.957 163.056 194.744 163.245C194.531 163.43 194.275 163.576 193.977 163.682C193.678 163.785 193.333 163.837 192.942 163.837ZM193.57 162.323C193.893 162.323 194.178 162.259 194.425 162.132C194.672 162.002 194.866 161.827 195.007 161.607C195.147 161.388 195.218 161.139 195.218 160.861V160.021C195.149 160.066 195.055 160.107 194.934 160.145C194.818 160.179 194.686 160.212 194.538 160.243C194.39 160.27 194.243 160.296 194.095 160.32C193.948 160.341 193.814 160.359 193.693 160.377C193.436 160.414 193.211 160.474 193.019 160.557C192.827 160.639 192.677 160.751 192.571 160.892C192.465 161.029 192.411 161.2 192.411 161.406C192.411 161.705 192.519 161.933 192.736 162.091C192.955 162.246 193.234 162.323 193.57 162.323ZM201.353 163.837C200.848 163.837 200.399 163.749 200.004 163.574C199.609 163.396 199.297 163.133 199.067 162.786C198.84 162.436 198.727 162 198.727 161.479C198.727 161.039 198.807 160.67 198.969 160.371C199.13 160.073 199.35 159.833 199.628 159.651C199.906 159.469 200.222 159.331 200.575 159.239C200.932 159.146 201.307 159.081 201.698 159.043C202.158 158.995 202.529 158.95 202.81 158.909C203.092 158.864 203.296 158.799 203.423 158.713C203.55 158.628 203.613 158.501 203.613 158.332V158.301C203.613 157.975 203.51 157.723 203.304 157.545C203.102 157.366 202.813 157.277 202.439 157.277C202.045 157.277 201.73 157.364 201.497 157.539C201.264 157.711 201.109 157.927 201.034 158.188L199.005 158.023C199.108 157.543 199.31 157.127 199.612 156.777C199.915 156.424 200.304 156.153 200.781 155.964C201.262 155.772 201.818 155.675 202.45 155.675C202.889 155.675 203.31 155.727 203.711 155.83C204.116 155.933 204.475 156.093 204.787 156.309C205.103 156.525 205.352 156.803 205.534 157.143C205.716 157.479 205.807 157.883 205.807 158.353V163.688H203.727V162.591H203.665C203.538 162.838 203.368 163.056 203.155 163.245C202.942 163.43 202.686 163.576 202.388 163.682C202.089 163.785 201.744 163.837 201.353 163.837ZM201.981 162.323C202.304 162.323 202.589 162.259 202.836 162.132C203.083 162.002 203.277 161.827 203.418 161.607C203.558 161.388 203.629 161.139 203.629 160.861V160.021C203.56 160.066 203.466 160.107 203.346 160.145C203.229 160.179 203.097 160.212 202.949 160.243C202.801 160.27 202.654 160.296 202.506 160.32C202.359 160.341 202.225 160.359 202.105 160.377C201.847 160.414 201.622 160.474 201.43 160.557C201.238 160.639 201.089 160.751 200.982 160.892C200.876 161.029 200.822 161.2 200.822 161.406C200.822 161.705 200.931 161.933 201.147 162.091C201.367 162.246 201.645 162.323 201.981 162.323ZM207.509 163.688V155.778H209.635V157.158H209.718C209.862 156.667 210.104 156.297 210.444 156.046C210.784 155.792 211.175 155.665 211.618 155.665C211.728 155.665 211.846 155.672 211.973 155.686C212.1 155.699 212.212 155.718 212.308 155.742V157.689C212.205 157.658 212.062 157.63 211.88 157.606C211.698 157.582 211.532 157.57 211.381 157.57C211.058 157.57 210.77 157.641 210.516 157.781C210.265 157.919 210.066 158.111 209.918 158.358C209.774 158.605 209.702 158.89 209.702 159.213V163.688H207.509ZM216.798 155.778H218.991V164.079C218.991 164.69 218.871 165.184 218.631 165.562C218.391 165.939 218.046 166.216 217.596 166.391C217.15 166.566 216.616 166.653 215.994 166.653C215.919 166.653 215.847 166.652 215.778 166.648C215.706 166.648 215.631 166.647 215.552 166.643V164.928C215.61 164.932 215.661 164.934 215.706 164.934C215.747 164.937 215.792 164.939 215.84 164.939C216.194 164.939 216.441 164.863 216.581 164.712C216.726 164.565 216.798 164.341 216.798 164.043V155.778ZM217.889 154.759C217.567 154.759 217.289 154.651 217.055 154.434C216.822 154.215 216.705 153.952 216.705 153.647C216.705 153.345 216.822 153.085 217.055 152.869C217.289 152.649 217.567 152.54 217.889 152.54C218.219 152.54 218.499 152.649 218.729 152.869C218.962 153.085 219.079 153.345 219.079 153.647C219.079 153.952 218.962 154.215 218.729 154.434C218.499 154.651 218.219 154.759 217.889 154.759ZM220.748 163.688V155.778H222.942V163.688H220.748ZM221.85 154.759C221.524 154.759 221.244 154.651 221.011 154.434C220.781 154.215 220.666 153.952 220.666 153.647C220.666 153.345 220.781 153.085 221.011 152.869C221.244 152.649 221.524 152.54 221.85 152.54C222.176 152.54 222.454 152.649 222.684 152.869C222.918 153.085 223.035 153.345 223.035 153.647C223.035 153.952 222.918 154.215 222.684 154.434C222.454 154.651 222.176 154.759 221.85 154.759ZM224.699 155.778H226.893V164.079C226.893 164.69 226.772 165.184 226.532 165.562C226.292 165.939 225.947 166.216 225.497 166.391C225.051 166.566 224.517 166.653 223.896 166.653C223.82 166.653 223.748 166.652 223.68 166.648C223.607 166.648 223.532 166.647 223.453 166.643V164.928C223.511 164.932 223.563 164.934 223.607 164.934C223.649 164.937 223.693 164.939 223.741 164.939C224.095 164.939 224.342 164.863 224.483 164.712C224.627 164.565 224.699 164.341 224.699 164.043V155.778ZM225.791 154.759C225.468 154.759 225.19 154.651 224.957 154.434C224.723 154.215 224.606 153.952 224.606 153.647C224.606 153.345 224.723 153.085 224.957 152.869C225.19 152.649 225.468 152.54 225.791 152.54C226.12 152.54 226.4 152.649 226.63 152.869C226.863 153.085 226.98 153.345 226.98 153.647C226.98 153.952 226.863 154.215 226.63 154.434C226.4 154.651 226.12 154.759 225.791 154.759ZM232.047 163.688V153.142H234.24V157.107H234.307C234.404 156.894 234.543 156.678 234.724 156.458C234.91 156.235 235.15 156.05 235.445 155.902C235.744 155.751 236.115 155.675 236.558 155.675C237.134 155.675 237.666 155.826 238.154 156.129C238.641 156.427 239.031 156.879 239.323 157.483C239.614 158.084 239.76 158.837 239.76 159.743C239.76 160.625 239.618 161.37 239.333 161.978C239.051 162.582 238.667 163.04 238.18 163.353C237.696 163.662 237.153 163.816 236.552 163.816C236.127 163.816 235.765 163.746 235.466 163.605C235.171 163.464 234.929 163.288 234.74 163.075C234.551 162.858 234.407 162.641 234.307 162.421H234.21V163.688H232.047ZM234.194 159.733C234.194 160.203 234.259 160.613 234.39 160.964C234.52 161.314 234.709 161.587 234.956 161.782C235.203 161.975 235.504 162.071 235.857 162.071C236.214 162.071 236.516 161.973 236.764 161.777C237.011 161.578 237.198 161.303 237.325 160.953C237.455 160.6 237.52 160.193 237.52 159.733C237.52 159.276 237.457 158.875 237.33 158.528C237.203 158.181 237.016 157.91 236.769 157.714C236.522 157.519 236.218 157.421 235.857 157.421C235.5 157.421 235.198 157.515 234.951 157.704C234.707 157.893 234.52 158.161 234.39 158.507C234.259 158.854 234.194 159.263 234.194 159.733ZM244.828 163.842C244.015 163.842 243.315 163.677 242.728 163.348C242.144 163.015 241.694 162.544 241.378 161.937C241.063 161.326 240.905 160.603 240.905 159.769C240.905 158.955 241.063 158.241 241.378 157.627C241.694 157.012 242.139 156.534 242.712 156.19C243.289 155.847 243.965 155.675 244.741 155.675C245.263 155.675 245.748 155.76 246.198 155.928C246.651 156.093 247.046 156.341 247.382 156.674C247.722 157.007 247.987 157.426 248.175 157.931C248.364 158.432 248.459 159.019 248.459 159.692V160.294H241.78V158.935H246.394C246.394 158.619 246.325 158.339 246.188 158.096C246.05 157.852 245.86 157.661 245.616 157.524C245.376 157.383 245.096 157.313 244.777 157.313C244.444 157.313 244.149 157.39 243.891 157.545C243.637 157.696 243.438 157.9 243.294 158.157C243.15 158.411 243.076 158.695 243.073 159.007V160.299C243.073 160.691 243.145 161.029 243.289 161.314C243.436 161.599 243.644 161.818 243.912 161.973C244.18 162.127 244.497 162.205 244.864 162.205C245.108 162.205 245.331 162.17 245.534 162.102C245.736 162.033 245.91 161.93 246.054 161.793C246.198 161.655 246.308 161.487 246.383 161.288L248.412 161.422C248.309 161.909 248.098 162.335 247.779 162.699C247.463 163.059 247.055 163.341 246.553 163.543C246.056 163.742 245.481 163.842 244.828 163.842ZM249.89 166.653V155.778H252.053V157.107H252.15C252.247 156.894 252.386 156.678 252.568 156.458C252.753 156.235 252.993 156.05 253.288 155.902C253.587 155.751 253.958 155.675 254.401 155.675C254.977 155.675 255.509 155.826 255.997 156.129C256.484 156.427 256.874 156.879 257.166 157.483C257.458 158.084 257.603 158.837 257.603 159.743C257.603 160.625 257.461 161.37 257.176 161.978C256.895 162.582 256.51 163.04 256.023 163.353C255.539 163.662 254.996 163.816 254.396 163.816C253.97 163.816 253.608 163.746 253.309 163.605C253.014 163.464 252.772 163.288 252.583 163.075C252.394 162.858 252.25 162.641 252.15 162.421H252.084V166.653H249.89ZM252.037 159.733C252.037 160.203 252.102 160.613 252.233 160.964C252.363 161.314 252.552 161.587 252.799 161.782C253.046 161.975 253.347 162.071 253.7 162.071C254.057 162.071 254.359 161.973 254.607 161.777C254.854 161.578 255.041 161.303 255.168 160.953C255.298 160.6 255.364 160.193 255.364 159.733C255.364 159.276 255.3 158.875 255.173 158.528C255.046 158.181 254.859 157.91 254.612 157.714C254.365 157.519 254.061 157.421 253.7 157.421C253.343 157.421 253.041 157.515 252.794 157.704C252.55 157.893 252.363 158.161 252.233 158.507C252.102 158.854 252.037 159.263 252.037 159.733ZM261.321 163.837C260.816 163.837 260.367 163.749 259.972 163.574C259.577 163.396 259.265 163.133 259.035 162.786C258.808 162.436 258.695 162 258.695 161.479C258.695 161.039 258.776 160.67 258.937 160.371C259.098 160.073 259.318 159.833 259.596 159.651C259.874 159.469 260.19 159.331 260.544 159.239C260.901 159.146 261.275 159.081 261.666 159.043C262.126 158.995 262.497 158.95 262.778 158.909C263.06 158.864 263.264 158.799 263.391 158.713C263.518 158.628 263.582 158.501 263.582 158.332V158.301C263.582 157.975 263.479 157.723 263.273 157.545C263.07 157.366 262.782 157.277 262.408 157.277C262.013 157.277 261.699 157.364 261.465 157.539C261.232 157.711 261.077 157.927 261.002 158.188L258.973 158.023C259.076 157.543 259.279 157.127 259.581 156.777C259.883 156.424 260.272 156.153 260.75 155.964C261.23 155.772 261.786 155.675 262.418 155.675C262.857 155.675 263.278 155.727 263.679 155.83C264.084 155.933 264.443 156.093 264.756 156.309C265.071 156.525 265.32 156.803 265.502 157.143C265.684 157.479 265.775 157.883 265.775 158.353V163.688H263.695V162.591H263.633C263.506 162.838 263.336 163.056 263.123 163.245C262.91 163.43 262.655 163.576 262.356 163.682C262.057 163.785 261.712 163.837 261.321 163.837ZM261.949 162.323C262.272 162.323 262.557 162.259 262.804 162.132C263.051 162.002 263.245 161.827 263.386 161.607C263.527 161.388 263.597 161.139 263.597 160.861V160.021C263.528 160.066 263.434 160.107 263.314 160.145C263.197 160.179 263.065 160.212 262.917 160.243C262.77 160.27 262.622 160.296 262.475 160.32C262.327 160.341 262.193 160.359 262.073 160.377C261.815 160.414 261.591 160.474 261.398 160.557C261.206 160.639 261.057 160.751 260.95 160.892C260.844 161.029 260.791 161.2 260.791 161.406C260.791 161.705 260.899 161.933 261.115 162.091C261.335 162.246 261.613 162.323 261.949 162.323ZM269.732 163.837C269.228 163.837 268.778 163.749 268.383 163.574C267.988 163.396 267.676 163.133 267.446 162.786C267.219 162.436 267.106 162 267.106 161.479C267.106 161.039 267.187 160.67 267.348 160.371C267.51 160.073 267.729 159.833 268.007 159.651C268.285 159.469 268.601 159.331 268.955 159.239C269.312 159.146 269.686 159.081 270.077 159.043C270.537 158.995 270.908 158.95 271.189 158.909C271.471 158.864 271.675 158.799 271.802 158.713C271.929 158.628 271.993 158.501 271.993 158.332V158.301C271.993 157.975 271.89 157.723 271.684 157.545C271.481 157.366 271.193 157.277 270.819 157.277C270.424 157.277 270.11 157.364 269.876 157.539C269.643 157.711 269.489 157.927 269.413 158.188L267.384 158.023C267.487 157.543 267.69 157.127 267.992 156.777C268.294 156.424 268.684 156.153 269.161 155.964C269.641 155.772 270.197 155.675 270.829 155.675C271.268 155.675 271.689 155.727 272.091 155.83C272.496 155.933 272.854 156.093 273.167 156.309C273.483 156.525 273.731 156.803 273.913 157.143C274.095 157.479 274.186 157.883 274.186 158.353V163.688H272.106V162.591H272.044C271.917 162.838 271.747 163.056 271.534 163.245C271.322 163.43 271.066 163.576 270.767 163.682C270.469 163.785 270.124 163.837 269.732 163.837ZM270.36 162.323C270.683 162.323 270.968 162.259 271.215 162.132C271.462 162.002 271.656 161.827 271.797 161.607C271.938 161.388 272.008 161.139 272.008 160.861V160.021C271.94 160.066 271.845 160.107 271.725 160.145C271.608 160.179 271.476 160.212 271.328 160.243C271.181 160.27 271.033 160.296 270.886 160.32C270.738 160.341 270.604 160.359 270.484 160.377C270.227 160.414 270.002 160.474 269.809 160.557C269.617 160.639 269.468 160.751 269.362 160.892C269.255 161.029 269.202 161.2 269.202 161.406C269.202 161.705 269.31 161.933 269.526 162.091C269.746 162.246 270.024 162.323 270.36 162.323ZM278.082 153.142V163.688H275.888V153.142H278.082ZM284.046 155.778V157.426H279.283V155.778H284.046ZM280.364 153.884H282.557V161.257C282.557 161.46 282.588 161.618 282.65 161.731C282.712 161.841 282.798 161.918 282.908 161.963C283.021 162.007 283.151 162.029 283.299 162.029C283.402 162.029 283.505 162.021 283.608 162.004C283.711 161.983 283.79 161.968 283.845 161.957L284.19 163.59C284.08 163.624 283.925 163.663 283.726 163.708C283.527 163.756 283.285 163.785 283 163.796C282.472 163.816 282.008 163.746 281.61 163.585C281.215 163.423 280.908 163.173 280.688 162.833C280.469 162.493 280.361 162.064 280.364 161.545V153.884ZM290.391 163.688L288.238 155.778H290.458L291.683 161.092H291.755L293.032 155.778H295.21L296.508 161.061H296.575L297.78 155.778H299.994L297.847 163.688H295.524L294.165 158.713H294.067L292.708 163.688H290.391ZM303.419 163.837C302.915 163.837 302.465 163.749 302.07 163.574C301.675 163.396 301.363 163.133 301.133 162.786C300.906 162.436 300.793 162 300.793 161.479C300.793 161.039 300.874 160.67 301.035 160.371C301.197 160.073 301.416 159.833 301.694 159.651C301.972 159.469 302.288 159.331 302.642 159.239C302.999 159.146 303.373 159.081 303.764 159.043C304.224 158.995 304.595 158.95 304.876 158.909C305.158 158.864 305.362 158.799 305.489 158.713C305.616 158.628 305.68 158.501 305.68 158.332V158.301C305.68 157.975 305.577 157.723 305.371 157.545C305.168 157.366 304.88 157.277 304.506 157.277C304.111 157.277 303.797 157.364 303.563 157.539C303.33 157.711 303.176 157.927 303.1 158.188L301.071 158.023C301.174 157.543 301.377 157.127 301.679 156.777C301.981 156.424 302.371 156.153 302.848 155.964C303.328 155.772 303.884 155.675 304.516 155.675C304.955 155.675 305.376 155.727 305.778 155.83C306.183 155.933 306.541 156.093 306.854 156.309C307.17 156.525 307.418 156.803 307.6 157.143C307.782 157.479 307.873 157.883 307.873 158.353V163.688H305.793V162.591H305.731C305.604 162.838 305.434 163.056 305.221 163.245C305.009 163.43 304.753 163.576 304.454 163.682C304.156 163.785 303.811 163.837 303.419 163.837ZM304.047 162.323C304.37 162.323 304.655 162.259 304.902 162.132C305.149 162.002 305.343 161.827 305.484 161.607C305.625 161.388 305.695 161.139 305.695 160.861V160.021C305.627 160.066 305.532 160.107 305.412 160.145C305.295 160.179 305.163 160.212 305.015 160.243C304.868 160.27 304.72 160.296 304.573 160.32C304.425 160.341 304.291 160.359 304.171 160.377C303.914 160.414 303.689 160.474 303.496 160.557C303.304 160.639 303.155 160.751 303.049 160.892C302.942 161.029 302.889 161.2 302.889 161.406C302.889 161.705 302.997 161.933 303.213 162.091C303.433 162.246 303.711 162.323 304.047 162.323ZM313.782 155.778V157.426H309.019V155.778H313.782ZM310.1 153.884H312.294V161.257C312.294 161.46 312.325 161.618 312.386 161.731C312.448 161.841 312.534 161.918 312.644 161.963C312.757 162.007 312.888 162.029 313.035 162.029C313.138 162.029 313.241 162.021 313.344 162.004C313.447 161.983 313.526 161.968 313.581 161.957L313.926 163.59C313.816 163.624 313.662 163.663 313.463 163.708C313.264 163.756 313.022 163.785 312.737 163.796C312.208 163.816 311.745 163.746 311.346 163.585C310.952 163.423 310.644 163.173 310.425 162.833C310.205 162.493 310.097 162.064 310.1 161.545V153.884ZM322.171 163.842C321.358 163.842 320.657 163.677 320.07 163.348C319.487 163.015 319.037 162.544 318.721 161.937C318.405 161.326 318.248 160.603 318.248 159.769C318.248 158.955 318.405 158.241 318.721 157.627C319.037 157.012 319.482 156.534 320.055 156.19C320.632 155.847 321.308 155.675 322.084 155.675C322.605 155.675 323.091 155.76 323.541 155.928C323.994 156.093 324.389 156.341 324.725 156.674C325.065 157.007 325.329 157.426 325.518 157.931C325.707 158.432 325.801 159.019 325.801 159.692V160.294H319.123V158.935H323.737C323.737 158.619 323.668 158.339 323.531 158.096C323.393 157.852 323.203 157.661 322.959 157.524C322.719 157.383 322.439 157.313 322.12 157.313C321.787 157.313 321.491 157.39 321.234 157.545C320.98 157.696 320.781 157.9 320.637 158.157C320.493 158.411 320.419 158.695 320.415 159.007V160.299C320.415 160.691 320.487 161.029 320.632 161.314C320.779 161.599 320.987 161.818 321.255 161.973C321.522 162.127 321.84 162.205 322.207 162.205C322.451 162.205 322.674 162.17 322.877 162.102C323.079 162.033 323.252 161.93 323.397 161.793C323.541 161.655 323.651 161.487 323.726 161.288L325.755 161.422C325.652 161.909 325.441 162.335 325.122 162.699C324.806 163.059 324.397 163.341 323.896 163.543C323.398 163.742 322.823 163.842 322.171 163.842ZM327.233 163.688V155.778H329.359V157.158H329.442C329.586 156.667 329.828 156.297 330.168 156.046C330.508 155.792 330.899 155.665 331.342 155.665C331.452 155.665 331.57 155.672 331.697 155.686C331.824 155.699 331.936 155.718 332.032 155.742V157.689C331.929 157.658 331.786 157.63 331.604 157.606C331.422 157.582 331.256 157.57 331.105 157.57C330.782 157.57 330.494 157.641 330.24 157.781C329.989 157.919 329.79 158.111 329.643 158.358C329.498 158.605 329.426 158.89 329.426 159.213V163.688H327.233ZM339.436 163.816C338.836 163.816 338.291 163.662 337.804 163.353C337.32 163.04 336.935 162.582 336.651 161.978C336.369 161.37 336.228 160.625 336.228 159.743C336.228 158.837 336.374 158.084 336.666 157.483C336.958 156.879 337.346 156.427 337.83 156.129C338.317 155.826 338.851 155.675 339.431 155.675C339.874 155.675 340.243 155.751 340.538 155.902C340.837 156.05 341.077 156.235 341.259 156.458C341.444 156.678 341.585 156.894 341.681 157.107H341.748V153.142H343.937V163.688H341.774V162.421H341.681C341.578 162.641 341.432 162.858 341.244 163.075C341.058 163.288 340.816 163.464 340.518 163.605C340.222 163.746 339.862 163.816 339.436 163.816ZM340.131 162.071C340.485 162.071 340.784 161.975 341.027 161.782C341.275 161.587 341.463 161.314 341.594 160.964C341.728 160.613 341.795 160.203 341.795 159.733C341.795 159.263 341.729 158.854 341.599 158.507C341.468 158.161 341.28 157.893 341.032 157.704C340.785 157.515 340.485 157.421 340.131 157.421C339.771 157.421 339.467 157.519 339.22 157.714C338.973 157.91 338.786 158.181 338.659 158.528C338.532 158.875 338.468 159.276 338.468 159.733C338.468 160.193 338.532 160.6 338.659 160.953C338.789 161.303 338.976 161.578 339.22 161.777C339.467 161.973 339.771 162.071 340.131 162.071ZM345.74 163.688V155.778H347.867V157.158H347.949C348.093 156.667 348.335 156.297 348.675 156.046C349.015 155.792 349.406 155.665 349.849 155.665C349.959 155.665 350.077 155.672 350.204 155.686C350.331 155.699 350.443 155.718 350.539 155.742V157.689C350.436 157.658 350.294 157.63 350.112 157.606C349.93 157.582 349.763 157.57 349.612 157.57C349.29 157.57 349.001 157.641 348.747 157.781C348.497 157.919 348.298 158.111 348.15 158.358C348.006 158.605 347.934 158.89 347.934 159.213V163.688H345.74ZM353.702 163.837C353.197 163.837 352.748 163.749 352.353 163.574C351.958 163.396 351.646 163.133 351.416 162.786C351.189 162.436 351.076 162 351.076 161.479C351.076 161.039 351.157 160.67 351.318 160.371C351.479 160.073 351.699 159.833 351.977 159.651C352.255 159.469 352.571 159.331 352.924 159.239C353.281 159.146 353.656 159.081 354.047 159.043C354.507 158.995 354.878 158.95 355.159 158.909C355.441 158.864 355.645 158.799 355.772 158.713C355.899 158.628 355.962 158.501 355.962 158.332V158.301C355.962 157.975 355.859 157.723 355.653 157.545C355.451 157.366 355.163 157.277 354.788 157.277C354.394 157.277 354.08 157.364 353.846 157.539C353.613 157.711 353.458 157.927 353.383 158.188L351.354 158.023C351.457 157.543 351.659 157.127 351.962 156.777C352.264 156.424 352.653 156.153 353.13 155.964C353.611 155.772 354.167 155.675 354.799 155.675C355.238 155.675 355.659 155.727 356.06 155.83C356.465 155.933 356.824 156.093 357.136 156.309C357.452 156.525 357.701 156.803 357.883 157.143C358.065 157.479 358.156 157.883 358.156 158.353V163.688H356.076V162.591H356.014C355.887 162.838 355.717 163.056 355.504 163.245C355.291 163.43 355.036 163.576 354.737 163.682C354.438 163.785 354.093 163.837 353.702 163.837ZM354.33 162.323C354.653 162.323 354.938 162.259 355.185 162.132C355.432 162.002 355.626 161.827 355.767 161.607C355.908 161.388 355.978 161.139 355.978 160.861V160.021C355.909 160.066 355.815 160.107 355.695 160.145C355.578 160.179 355.446 160.212 355.298 160.243C355.151 160.27 355.003 160.296 354.855 160.32C354.708 160.341 354.574 160.359 354.454 160.377C354.196 160.414 353.971 160.474 353.779 160.557C353.587 160.639 353.438 160.751 353.331 160.892C353.225 161.029 353.172 161.2 353.172 161.406C353.172 161.705 353.28 161.933 353.496 162.091C353.716 162.246 353.994 162.323 354.33 162.323ZM362.113 163.837C361.608 163.837 361.159 163.749 360.764 163.574C360.369 163.396 360.057 163.133 359.827 162.786C359.6 162.436 359.487 162 359.487 161.479C359.487 161.039 359.568 160.67 359.729 160.371C359.89 160.073 360.11 159.833 360.388 159.651C360.666 159.469 360.982 159.331 361.336 159.239C361.693 159.146 362.067 159.081 362.458 159.043C362.918 158.995 363.289 158.95 363.57 158.909C363.852 158.864 364.056 158.799 364.183 158.713C364.31 158.628 364.374 158.501 364.374 158.332V158.301C364.374 157.975 364.271 157.723 364.065 157.545C363.862 157.366 363.574 157.277 363.2 157.277C362.805 157.277 362.491 157.364 362.257 157.539C362.024 157.711 361.869 157.927 361.794 158.188L359.765 158.023C359.868 157.543 360.071 157.127 360.373 156.777C360.675 156.424 361.064 156.153 361.542 155.964C362.022 155.772 362.578 155.675 363.21 155.675C363.649 155.675 364.07 155.727 364.471 155.83C364.876 155.933 365.235 156.093 365.548 156.309C365.863 156.525 366.112 156.803 366.294 157.143C366.476 157.479 366.567 157.883 366.567 158.353V163.688H364.487V162.591H364.425C364.298 162.838 364.128 163.056 363.915 163.245C363.702 163.43 363.447 163.576 363.148 163.682C362.849 163.785 362.504 163.837 362.113 163.837ZM362.741 162.323C363.064 162.323 363.349 162.259 363.596 162.132C363.843 162.002 364.037 161.827 364.178 161.607C364.319 161.388 364.389 161.139 364.389 160.861V160.021C364.32 160.066 364.226 160.107 364.106 160.145C363.989 160.179 363.857 160.212 363.709 160.243C363.562 160.27 363.414 160.296 363.267 160.32C363.119 160.341 362.985 160.359 362.865 160.377C362.607 160.414 362.383 160.474 362.19 160.557C361.998 160.639 361.849 160.751 361.742 160.892C361.636 161.029 361.583 161.2 361.583 161.406C361.583 161.705 361.691 161.933 361.907 162.091C362.127 162.246 362.405 162.323 362.741 162.323ZM368.269 163.688V155.778H370.462V163.688H368.269ZM369.371 154.759C369.045 154.759 368.765 154.651 368.532 154.434C368.302 154.215 368.187 153.952 368.187 153.647C368.187 153.345 368.302 153.085 368.532 152.869C368.765 152.649 369.045 152.54 369.371 152.54C369.697 152.54 369.975 152.649 370.205 152.869C370.438 153.085 370.555 153.345 370.555 153.647C370.555 153.952 370.438 154.215 370.205 154.434C369.975 154.651 369.697 154.759 369.371 154.759ZM376.426 155.778V157.426H371.663V155.778H376.426ZM372.745 153.884H374.938V161.257C374.938 161.46 374.969 161.618 375.031 161.731C375.093 161.841 375.179 161.918 375.288 161.963C375.402 162.007 375.532 162.029 375.68 162.029C375.783 162.029 375.886 162.021 375.989 162.004C376.092 161.983 376.171 161.968 376.226 161.957L376.571 163.59C376.461 163.624 376.306 163.663 376.107 163.708C375.908 163.756 375.666 163.785 375.381 163.796C374.853 163.816 374.389 163.746 373.991 163.585C373.596 163.423 373.289 163.173 373.069 162.833C372.85 162.493 372.741 162.064 372.745 161.545V153.884ZM379.137 163.821C378.798 163.821 378.506 163.701 378.262 163.461C378.022 163.217 377.902 162.925 377.902 162.586C377.902 162.249 378.022 161.961 378.262 161.721C378.506 161.48 378.798 161.36 379.137 161.36C379.467 161.36 379.755 161.48 380.003 161.721C380.25 161.961 380.373 162.249 380.373 162.586C380.373 162.812 380.315 163.02 380.198 163.209C380.085 163.394 379.936 163.543 379.75 163.657C379.565 163.766 379.361 163.821 379.137 163.821Z" fill="#3549E3"/>
<circle cx="71" cy="71" r="71" fill="#3549E3"/>
<rect x="69" y="126" width="312" height="16" fill="#3549E3"/>
<mask id="mask0_56_94" style="mask-type:alpha" maskUnits="userSpaceOnUse" x="0" y="0" width="130" height="142">
<ellipse cx="65" cy="71" rx="65" ry="71" fill="#000C66"/>
</mask>
<g mask="url(#mask0_56_94)">
<circle cx="6" cy="26" r="69" fill="#838EDC" fill-opacity="0.5"/>
<ellipse cx="71" cy="35" rx="16" ry="15" fill="#171F51"/>
<ellipse cx="33" cy="71" rx="15" ry="16" fill="#171F51"/>
<ellipse cx="71" cy="109" rx="16" ry="15" fill="#171F51"/>
<ellipse cx="111" cy="71" rx="15" ry="16" fill="#171F51"/>
<circle cx="71.5" cy="70.5" r="6.5" fill="#171F51"/>
</g>
</svg>
