<svg width="393" height="168" viewBox="0 0 393 168" fill="none" xmlns="http://www.w3.org/2000/svg">
<path d="M169.759 58.6875H162.119V36.142H169.914C172.152 36.142 174.075 36.5934 175.682 37.4961C177.297 38.3915 178.537 39.6794 179.403 41.3601C180.269 43.0407 180.702 45.0516 180.702 47.3928C180.702 49.7412 180.265 51.7595 179.392 53.4474C178.526 55.1354 177.275 56.4308 175.638 57.3335C174.009 58.2362 172.049 58.6875 169.759 58.6875ZM166.204 55.1538H169.561C171.132 55.1538 172.442 54.8675 173.491 54.2951C174.541 53.7153 175.33 52.853 175.858 51.7081C176.387 50.5559 176.651 49.1174 176.651 47.3928C176.651 45.6681 176.387 44.237 175.858 43.0994C175.33 41.9545 174.548 41.0996 173.513 40.5344C172.486 39.962 171.209 39.6758 169.682 39.6758H166.204V55.1538ZM191.892 59.0178C190.197 59.0178 188.733 58.6655 187.5 57.9609C186.274 57.2491 185.331 56.2436 184.67 54.9446C184.01 53.6383 183.68 52.1007 183.68 50.332C183.68 48.5927 184.01 47.0662 184.67 45.7525C185.338 44.4315 186.27 43.404 187.467 42.6701C188.663 41.9289 190.068 41.5582 191.683 41.5582C192.725 41.5582 193.708 41.727 194.633 42.0646C195.565 42.3949 196.387 42.9086 197.099 43.6058C197.818 44.303 198.383 45.1911 198.794 46.2699C199.205 47.3414 199.411 48.6184 199.411 50.1009V51.3228H185.551V48.6367H195.591C195.584 47.8735 195.418 47.1946 195.096 46.6001C194.773 45.9983 194.321 45.525 193.741 45.18C193.169 44.8351 192.501 44.6626 191.738 44.6626C190.923 44.6626 190.208 44.8608 189.591 45.2571C188.975 45.6461 188.494 46.1598 188.149 46.7983C187.812 47.4295 187.639 48.123 187.632 48.8789V51.2237C187.632 52.2071 187.812 53.0511 188.171 53.7557C188.531 54.4529 189.033 54.9886 189.679 55.3629C190.325 55.7299 191.081 55.9134 191.947 55.9134C192.527 55.9134 193.052 55.8326 193.521 55.6712C193.991 55.5024 194.398 55.2565 194.743 54.9336C195.088 54.6107 195.349 54.2107 195.525 53.7337L199.246 54.152C199.011 55.1354 198.563 55.9941 197.903 56.728C197.25 57.4545 196.413 58.0196 195.393 58.4233C194.373 58.8196 193.206 59.0178 191.892 59.0178ZM202.782 58.6875V41.7784H206.591V44.6516H206.789C207.142 43.6829 207.725 42.927 208.54 42.3839C209.354 41.8335 210.327 41.5582 211.457 41.5582C212.602 41.5582 213.567 41.8371 214.352 42.3949C215.145 42.9453 215.703 43.6976 216.025 44.6516H216.202C216.576 43.7122 217.207 42.9637 218.095 42.4059C218.99 41.8408 220.051 41.5582 221.277 41.5582C222.832 41.5582 224.102 42.05 225.085 43.0334C226.069 44.0168 226.561 45.4516 226.561 47.3377V58.6875H222.565V47.9542C222.565 46.9047 222.286 46.1378 221.728 45.6534C221.17 45.1617 220.488 44.9158 219.68 44.9158C218.719 44.9158 217.967 45.2167 217.424 45.8185C216.888 46.413 216.62 47.1873 216.62 48.1413V58.6875H212.712V47.7891C212.712 46.9157 212.448 46.2185 211.919 45.6974C211.398 45.1764 210.716 44.9158 209.872 44.9158C209.299 44.9158 208.778 45.0626 208.308 45.3562C207.839 45.6424 207.464 46.0497 207.186 46.5781C206.907 47.0992 206.767 47.7083 206.767 48.4055V58.6875H202.782ZM237.979 59.0178C236.328 59.0178 234.897 58.6545 233.686 57.9279C232.475 57.2013 231.536 56.1849 230.868 54.8786C230.207 53.5722 229.877 52.0457 229.877 50.299C229.877 48.5523 230.207 47.0221 230.868 45.7085C231.536 44.3948 232.475 43.3746 233.686 42.6481C234.897 41.9215 236.328 41.5582 237.979 41.5582C239.63 41.5582 241.062 41.9215 242.273 42.6481C243.483 43.3746 244.419 44.3948 245.08 45.7085C245.748 47.0221 246.081 48.5523 246.081 50.299C246.081 52.0457 245.748 53.5722 245.08 54.8786C244.419 56.1849 243.483 57.2013 242.273 57.9279C241.062 58.6545 239.63 59.0178 237.979 59.0178ZM238.001 55.8253C238.897 55.8253 239.645 55.5794 240.247 55.0877C240.849 54.5887 241.296 53.9208 241.59 53.0842C241.891 52.2475 242.041 51.3155 242.041 50.288C242.041 49.2532 241.891 48.3175 241.59 47.4808C241.296 46.6368 240.849 45.9653 240.247 45.4663C239.645 44.9672 238.897 44.7177 238.001 44.7177C237.084 44.7177 236.321 44.9672 235.711 45.4663C235.11 45.9653 234.658 46.6368 234.357 47.4808C234.064 48.3175 233.917 49.2532 233.917 50.288C233.917 51.3155 234.064 52.2475 234.357 53.0842C234.658 53.9208 235.11 54.5887 235.711 55.0877C236.321 55.5794 237.084 55.8253 238.001 55.8253ZM256.84 59.0178C255.152 59.0178 253.702 58.6471 252.491 57.9059C251.288 57.1647 250.359 56.1409 249.706 54.8345C249.06 53.5208 248.737 52.009 248.737 50.299C248.737 48.5817 249.068 47.0662 249.728 45.7525C250.389 44.4315 251.321 43.404 252.524 42.6701C253.735 41.9289 255.166 41.5582 256.818 41.5582C258.19 41.5582 259.405 41.8114 260.461 42.3178C261.526 42.8169 262.373 43.5251 263.004 44.4425C263.635 45.3525 263.995 46.4167 264.083 47.6349H260.274C260.12 46.8203 259.753 46.1415 259.173 45.5984C258.601 45.0479 257.834 44.7727 256.873 44.7727C256.058 44.7727 255.342 44.9929 254.726 45.4332C254.109 45.8662 253.629 46.4901 253.284 47.3047C252.946 48.1193 252.777 49.0954 252.777 50.233C252.777 51.3852 252.946 52.3759 253.284 53.2053C253.621 54.0272 254.095 54.662 254.704 55.1097C255.32 55.5501 256.043 55.7702 256.873 55.7702C257.46 55.7702 257.984 55.6602 258.447 55.44C258.916 55.2125 259.309 54.8859 259.625 54.4602C259.94 54.0346 260.157 53.5172 260.274 52.908H264.083C263.988 54.1043 263.635 55.1648 263.026 56.0895C262.417 57.0069 261.588 57.7261 260.538 58.2472C259.489 58.7609 258.256 59.0178 256.84 59.0178ZM267.355 58.6875V41.7784H271.219V44.5966H271.396C271.704 43.6205 272.232 42.8683 272.981 42.3398C273.737 41.8041 274.599 41.5362 275.568 41.5362C275.788 41.5362 276.034 41.5472 276.305 41.5692C276.584 41.5839 276.815 41.6096 276.999 41.6463V45.3121C276.83 45.2534 276.562 45.2021 276.195 45.158C275.836 45.1067 275.487 45.081 275.149 45.081C274.423 45.081 273.77 45.2388 273.19 45.5543C272.618 45.8626 272.166 46.2919 271.836 46.8423C271.506 47.3928 271.341 48.0276 271.341 48.7468V58.6875H267.355ZM284.209 59.0288C283.138 59.0288 282.173 58.8379 281.314 58.4563C280.463 58.0674 279.788 57.4949 279.289 56.739C278.797 55.9831 278.551 55.051 278.551 53.9428C278.551 52.9888 278.727 52.1998 279.08 51.576C279.432 50.9522 279.913 50.4531 280.522 50.0788C281.131 49.7045 281.817 49.422 282.58 49.2312C283.351 49.033 284.147 48.8899 284.969 48.8018C285.96 48.6991 286.763 48.6074 287.38 48.5266C287.996 48.4386 288.444 48.3065 288.723 48.1303C289.009 47.9469 289.152 47.6643 289.152 47.2827V47.2166C289.152 46.3873 288.906 45.7451 288.415 45.2901C287.923 44.8351 287.215 44.6076 286.29 44.6076C285.314 44.6076 284.54 44.8204 283.967 45.2461C283.402 45.6718 283.021 46.1745 282.822 46.7543L279.102 46.2259C279.395 45.1984 279.879 44.3397 280.555 43.6499C281.23 42.9527 282.055 42.4316 283.032 42.0866C284.008 41.7344 285.087 41.5582 286.268 41.5582C287.083 41.5582 287.894 41.6536 288.701 41.8445C289.508 42.0353 290.246 42.3509 290.914 42.7912C291.582 43.2242 292.117 43.815 292.521 44.5636C292.932 45.3121 293.137 46.2479 293.137 47.3707V58.6875H289.306V56.3647H289.174C288.932 56.8344 288.591 57.2747 288.151 57.6857C287.718 58.0894 287.171 58.416 286.51 58.6655C285.857 58.9077 285.09 59.0288 284.209 59.0288ZM285.244 56.1005C286.044 56.1005 286.738 55.9427 287.325 55.6271C287.912 55.3042 288.363 54.8786 288.679 54.3501C289.002 53.8217 289.163 53.2456 289.163 52.6218V50.6293C289.039 50.732 288.826 50.8274 288.525 50.9155C288.231 51.0036 287.901 51.0806 287.534 51.1467C287.167 51.2127 286.804 51.2714 286.444 51.3228C286.085 51.3742 285.773 51.4182 285.509 51.4549C284.914 51.5356 284.382 51.6677 283.912 51.8512C283.443 52.0347 283.072 52.2915 282.8 52.6218C282.529 52.9447 282.393 53.363 282.393 53.8768C282.393 54.6107 282.661 55.1648 283.197 55.5391C283.732 55.9134 284.415 56.1005 285.244 56.1005ZM305.588 41.7784V44.8608H295.868V41.7784H305.588ZM298.267 37.7273H302.252V53.6016C302.252 54.1373 302.333 54.5483 302.495 54.8345C302.663 55.1134 302.884 55.3042 303.155 55.407C303.427 55.5097 303.728 55.5611 304.058 55.5611C304.307 55.5611 304.535 55.5427 304.74 55.506C304.953 55.4693 305.115 55.4363 305.225 55.407L305.896 58.5224C305.683 58.5958 305.379 58.6765 304.983 58.7646C304.594 58.8526 304.117 58.904 303.551 58.9187C302.553 58.948 301.654 58.7976 300.854 58.4673C300.054 58.1297 299.42 57.6087 298.95 56.9041C298.488 56.1996 298.26 55.3189 298.267 54.2621V37.7273ZM308.921 58.6875V41.7784H312.906V58.6875H308.921ZM310.924 39.3786C310.293 39.3786 309.75 39.1694 309.295 38.7511C308.84 38.3254 308.613 37.8153 308.613 37.2209C308.613 36.6191 308.84 36.109 309.295 35.6907C309.75 35.265 310.293 35.0522 310.924 35.0522C311.563 35.0522 312.106 35.265 312.554 35.6907C313.009 36.109 313.236 36.6191 313.236 37.2209C313.236 37.8153 313.009 38.3254 312.554 38.7511C312.106 39.1694 311.563 39.3786 310.924 39.3786ZM330.368 46.2479L326.735 46.6442C326.633 46.2772 326.453 45.9323 326.196 45.6094C325.946 45.2865 325.609 45.0259 325.183 44.8278C324.758 44.6296 324.236 44.5305 323.62 44.5305C322.791 44.5305 322.093 44.7103 321.528 45.07C320.971 45.4296 320.695 45.8956 320.703 46.468C320.695 46.9598 320.875 47.3597 321.242 47.668C321.616 47.9762 322.233 48.2294 323.092 48.4276L325.976 49.044C327.576 49.389 328.765 49.9357 329.543 50.6843C330.328 51.4329 330.724 52.4126 330.732 53.6236C330.724 54.6877 330.412 55.6271 329.796 56.4418C329.187 57.2491 328.339 57.8802 327.253 58.3352C326.167 58.7902 324.919 59.0178 323.51 59.0178C321.44 59.0178 319.774 58.5848 318.512 57.7188C317.25 56.8454 316.497 55.6308 316.255 54.0749L320.141 53.7006C320.317 54.4639 320.692 55.04 321.264 55.429C321.837 55.8179 322.582 56.0124 323.499 56.0124C324.446 56.0124 325.205 55.8179 325.778 55.429C326.357 55.04 326.647 54.5593 326.647 53.9869C326.647 53.5025 326.46 53.1025 326.086 52.7869C325.719 52.4714 325.147 52.2292 324.369 52.0604L321.484 51.4549C319.862 51.1173 318.663 50.5485 317.885 49.7486C317.107 48.9413 316.721 47.9212 316.729 46.6882C316.721 45.6461 317.004 44.7434 317.576 43.9801C318.156 43.2095 318.96 42.6151 319.987 42.1967C321.022 41.7711 322.215 41.5582 323.565 41.5582C325.546 41.5582 327.106 41.9802 328.244 42.8242C329.388 43.6682 330.097 44.8094 330.368 46.2479ZM341.393 59.0178C339.705 59.0178 338.256 58.6471 337.045 57.9059C335.841 57.1647 334.913 56.1409 334.26 54.8345C333.614 53.5208 333.291 52.009 333.291 50.299C333.291 48.5817 333.621 47.0662 334.282 45.7525C334.942 44.4315 335.874 43.404 337.078 42.6701C338.289 41.9289 339.72 41.5582 341.371 41.5582C342.744 41.5582 343.958 41.8114 345.015 42.3178C346.079 42.8169 346.927 43.5251 347.558 44.4425C348.189 45.3525 348.549 46.4167 348.637 47.6349H344.828C344.674 46.8203 344.307 46.1415 343.727 45.5984C343.155 45.0479 342.388 44.7727 341.426 44.7727C340.612 44.7727 339.896 44.9929 339.28 45.4332C338.663 45.8662 338.182 46.4901 337.838 47.3047C337.5 48.1193 337.331 49.0954 337.331 50.233C337.331 51.3852 337.5 52.3759 337.838 53.2053C338.175 54.0272 338.648 54.662 339.258 55.1097C339.874 55.5501 340.597 55.7702 341.426 55.7702C342.013 55.7702 342.538 55.6602 343.001 55.44C343.47 55.2125 343.863 54.8859 344.178 54.4602C344.494 54.0346 344.711 53.5172 344.828 52.908H348.637C348.541 54.1043 348.189 55.1648 347.58 56.0895C346.971 57.0069 346.142 57.7261 345.092 58.2472C344.043 58.7609 342.81 59.0178 341.393 59.0178ZM355.894 48.7798V58.6875H351.909V36.142H355.806V44.6516H356.004C356.401 43.6976 357.013 42.9453 357.843 42.3949C358.679 41.8371 359.744 41.5582 361.035 41.5582C362.209 41.5582 363.233 41.8041 364.107 42.2958C364.98 42.7875 365.655 43.5067 366.132 44.4535C366.617 45.4002 366.859 46.5561 366.859 47.9212V58.6875H362.874V48.5376C362.874 47.4001 362.58 46.5157 361.993 45.8846C361.413 45.2461 360.599 44.9268 359.549 44.9268C358.845 44.9268 358.213 45.081 357.656 45.3892C357.105 45.6901 356.672 46.1268 356.357 46.6992C356.048 47.2717 355.894 47.9652 355.894 48.7798ZM378.407 59.0178C376.711 59.0178 375.247 58.6655 374.014 57.9609C372.789 57.2491 371.846 56.2436 371.185 54.9446C370.525 53.6383 370.194 52.1007 370.194 50.332C370.194 48.5927 370.525 47.0662 371.185 45.7525C371.853 44.4315 372.785 43.404 373.981 42.6701C375.178 41.9289 376.583 41.5582 378.198 41.5582C379.24 41.5582 380.223 41.727 381.148 42.0646C382.08 42.3949 382.902 42.9086 383.614 43.6058C384.333 44.303 384.898 45.1911 385.309 46.2699C385.72 47.3414 385.925 48.6184 385.925 50.1009V51.3228H372.066V48.6367H382.106C382.098 47.8735 381.933 47.1946 381.61 46.6001C381.287 45.9983 380.836 45.525 380.256 45.18C379.684 44.8351 379.016 44.6626 378.253 44.6626C377.438 44.6626 376.722 44.8608 376.106 45.2571C375.489 45.6461 375.009 46.1598 374.664 46.7983C374.326 47.4295 374.154 48.123 374.146 48.8789V51.2237C374.146 52.2071 374.326 53.0511 374.686 53.7557C375.045 54.4529 375.548 54.9886 376.194 55.3629C376.84 55.7299 377.596 55.9134 378.462 55.9134C379.041 55.9134 379.566 55.8326 380.036 55.6712C380.506 55.5024 380.913 55.2565 381.258 54.9336C381.603 54.6107 381.863 54.2107 382.039 53.7337L385.76 54.152C385.526 55.1354 385.078 55.9941 384.417 56.728C383.764 57.4545 382.928 58.0196 381.907 58.4233C380.887 58.8196 379.72 59.0178 378.407 59.0178Z" fill="white"/>
<path d="M164.119 96.6875V74.142H172.75C174.379 74.142 175.733 74.3989 176.812 74.9126C177.898 75.419 178.709 76.1126 179.245 76.9933C179.788 77.8739 180.06 78.872 180.06 79.9876C180.06 80.9049 179.884 81.6902 179.531 82.3434C179.179 82.9892 178.706 83.514 178.111 83.9176C177.517 84.3213 176.853 84.6112 176.119 84.7873V85.0075C176.919 85.0515 177.686 85.2973 178.42 85.745C179.161 86.1854 179.766 86.8092 180.236 87.6165C180.706 88.4238 180.94 89.3999 180.94 90.5447C180.94 91.7116 180.658 92.7611 180.093 93.6932C179.528 94.6179 178.676 95.3481 177.539 95.8839C176.401 96.4196 174.97 96.6875 173.246 96.6875H164.119ZM168.204 93.2749H172.596C174.079 93.2749 175.146 92.9923 175.8 92.4272C176.46 91.8548 176.79 91.1209 176.79 90.2255C176.79 89.5576 176.625 88.9558 176.295 88.4201C175.965 87.877 175.495 87.4513 174.886 87.1431C174.277 86.8275 173.55 86.6697 172.706 86.6697H168.204V93.2749ZM168.204 83.7305H172.244C172.948 83.7305 173.583 83.602 174.148 83.3452C174.713 83.081 175.157 82.7103 175.48 82.2333C175.811 81.7489 175.976 81.1765 175.976 80.516C175.976 79.6426 175.667 78.9234 175.051 78.3583C174.442 77.7932 173.535 77.5107 172.332 77.5107H168.204V83.7305ZM184.317 96.6875V79.7784H188.302V96.6875H184.317ZM186.321 77.3786C185.69 77.3786 185.147 77.1694 184.692 76.7511C184.237 76.3254 184.009 75.8153 184.009 75.2209C184.009 74.6191 184.237 74.109 184.692 73.6907C185.147 73.265 185.69 73.0522 186.321 73.0522C186.959 73.0522 187.502 73.265 187.95 73.6907C188.405 74.109 188.633 74.6191 188.633 75.2209C188.633 75.8153 188.405 76.3254 187.95 76.7511C187.502 77.1694 186.959 77.3786 186.321 77.3786ZM199.776 97.0178C198.125 97.0178 196.694 96.6545 195.483 95.9279C194.272 95.2013 193.332 94.1849 192.665 92.8786C192.004 91.5722 191.674 90.0457 191.674 88.299C191.674 86.5523 192.004 85.0221 192.665 83.7085C193.332 82.3948 194.272 81.3746 195.483 80.6481C196.694 79.9215 198.125 79.5582 199.776 79.5582C201.427 79.5582 202.858 79.9215 204.069 80.6481C205.28 81.3746 206.216 82.3948 206.877 83.7085C207.544 85.0221 207.878 86.5523 207.878 88.299C207.878 90.0457 207.544 91.5722 206.877 92.8786C206.216 94.1849 205.28 95.2013 204.069 95.9279C202.858 96.6545 201.427 97.0178 199.776 97.0178ZM199.798 93.8253C200.693 93.8253 201.442 93.5794 202.044 93.0877C202.646 92.5887 203.093 91.9208 203.387 91.0842C203.688 90.2475 203.838 89.3155 203.838 88.288C203.838 87.2532 203.688 86.3175 203.387 85.4808C203.093 84.6368 202.646 83.9653 202.044 83.4663C201.442 82.9672 200.693 82.7177 199.798 82.7177C198.881 82.7177 198.117 82.9672 197.508 83.4663C196.907 83.9653 196.455 84.6368 196.154 85.4808C195.861 86.3175 195.714 87.2532 195.714 88.288C195.714 89.3155 195.861 90.2475 196.154 91.0842C196.455 91.9208 196.907 92.5887 197.508 93.0877C198.117 93.5794 198.881 93.8253 199.798 93.8253ZM224.625 84.2479L220.992 84.6442C220.89 84.2772 220.71 83.9323 220.453 83.6094C220.203 83.2865 219.866 83.0259 219.44 82.8278C219.014 82.6296 218.493 82.5305 217.877 82.5305C217.048 82.5305 216.35 82.7103 215.785 83.07C215.227 83.4296 214.952 83.8956 214.96 84.468C214.952 84.9598 215.132 85.3597 215.499 85.668C215.873 85.9762 216.49 86.2294 217.348 86.4276L220.233 87.044C221.833 87.389 223.021 87.9357 223.799 88.6843C224.585 89.4329 224.981 90.4126 224.988 91.6236C224.981 92.6877 224.669 93.6271 224.053 94.4418C223.443 95.2491 222.596 95.8802 221.51 96.3352C220.423 96.7902 219.176 97.0178 217.767 97.0178C215.697 97.0178 214.031 96.5848 212.769 95.7188C211.507 94.8454 210.754 93.6308 210.512 92.0749L214.398 91.7006C214.574 92.4639 214.949 93.04 215.521 93.429C216.093 93.8179 216.838 94.0124 217.756 94.0124C218.702 94.0124 219.462 93.8179 220.035 93.429C220.614 93.04 220.904 92.5593 220.904 91.9869C220.904 91.5025 220.717 91.1025 220.343 90.7869C219.976 90.4714 219.403 90.2292 218.625 90.0604L215.741 89.4549C214.119 89.1173 212.919 88.5485 212.141 87.7486C211.363 86.9413 210.978 85.9212 210.986 84.6882C210.978 83.6461 211.261 82.7434 211.833 81.9801C212.413 81.2095 213.217 80.6151 214.244 80.1967C215.279 79.7711 216.471 79.5582 217.822 79.5582C219.803 79.5582 221.363 79.9802 222.5 80.8242C223.645 81.6682 224.354 82.8094 224.625 84.2479ZM235.65 97.0178C233.962 97.0178 232.513 96.6471 231.302 95.9059C230.098 95.1647 229.17 94.1409 228.517 92.8345C227.871 91.5208 227.548 90.009 227.548 88.299C227.548 86.5817 227.878 85.0662 228.539 83.7525C229.199 82.4315 230.131 81.404 231.335 80.6701C232.546 79.9289 233.977 79.5582 235.628 79.5582C237 79.5582 238.215 79.8114 239.272 80.3178C240.336 80.8169 241.184 81.5251 241.815 82.4425C242.446 83.3525 242.806 84.4167 242.894 85.6349H239.085C238.931 84.8203 238.564 84.1415 237.984 83.5984C237.411 83.0479 236.645 82.7727 235.683 82.7727C234.868 82.7727 234.153 82.9929 233.536 83.4332C232.92 83.8662 232.439 84.4901 232.094 85.3047C231.757 86.1193 231.588 87.0954 231.588 88.233C231.588 89.3852 231.757 90.3759 232.094 91.2053C232.432 92.0272 232.905 92.662 233.514 93.1097C234.131 93.5501 234.854 93.7702 235.683 93.7702C236.27 93.7702 236.795 93.6602 237.257 93.44C237.727 93.2125 238.12 92.8859 238.435 92.4602C238.751 92.0346 238.967 91.5172 239.085 90.908H242.894C242.798 92.1043 242.446 93.1648 241.837 94.0895C241.228 95.0069 240.398 95.7261 239.349 96.2472C238.299 96.7609 237.067 97.0178 235.65 97.0178ZM253.542 97.0178C251.89 97.0178 250.459 96.6545 249.248 95.9279C248.037 95.2013 247.098 94.1849 246.43 92.8786C245.77 91.5722 245.439 90.0457 245.439 88.299C245.439 86.5523 245.77 85.0221 246.43 83.7085C247.098 82.3948 248.037 81.3746 249.248 80.6481C250.459 79.9215 251.89 79.5582 253.542 79.5582C255.193 79.5582 256.624 79.9215 257.835 80.6481C259.046 81.3746 259.982 82.3948 260.642 83.7085C261.31 85.0221 261.644 86.5523 261.644 88.299C261.644 90.0457 261.31 91.5722 260.642 92.8786C259.982 94.1849 259.046 95.2013 257.835 95.9279C256.624 96.6545 255.193 97.0178 253.542 97.0178ZM253.564 93.8253C254.459 93.8253 255.208 93.5794 255.809 93.0877C256.411 92.5887 256.859 91.9208 257.152 91.0842C257.453 90.2475 257.604 89.3155 257.604 88.288C257.604 87.2532 257.453 86.3175 257.152 85.4808C256.859 84.6368 256.411 83.9653 255.809 83.4663C255.208 82.9672 254.459 82.7177 253.564 82.7177C252.646 82.7177 251.883 82.9672 251.274 83.4663C250.672 83.9653 250.221 84.6368 249.92 85.4808C249.626 86.3175 249.48 87.2532 249.48 88.288C249.48 89.3155 249.626 90.2475 249.92 91.0842C250.221 91.9208 250.672 92.5887 251.274 93.0877C251.883 93.5794 252.646 93.8253 253.564 93.8253ZM272.402 97.0178C270.751 97.0178 269.32 96.6545 268.109 95.9279C266.898 95.2013 265.958 94.1849 265.291 92.8786C264.63 91.5722 264.3 90.0457 264.3 88.299C264.3 86.5523 264.63 85.0221 265.291 83.7085C265.958 82.3948 266.898 81.3746 268.109 80.6481C269.32 79.9215 270.751 79.5582 272.402 79.5582C274.053 79.5582 275.484 79.9215 276.695 80.6481C277.906 81.3746 278.842 82.3948 279.503 83.7085C280.17 85.0221 280.504 86.5523 280.504 88.299C280.504 90.0457 280.17 91.5722 279.503 92.8786C278.842 94.1849 277.906 95.2013 276.695 95.9279C275.484 96.6545 274.053 97.0178 272.402 97.0178ZM272.424 93.8253C273.319 93.8253 274.068 93.5794 274.67 93.0877C275.272 92.5887 275.719 91.9208 276.013 91.0842C276.314 90.2475 276.464 89.3155 276.464 88.288C276.464 87.2532 276.314 86.3175 276.013 85.4808C275.719 84.6368 275.272 83.9653 274.67 83.4663C274.068 82.9672 273.319 82.7177 272.424 82.7177C271.507 82.7177 270.743 82.9672 270.134 83.4663C269.533 83.9653 269.081 84.6368 268.78 85.4808C268.487 86.3175 268.34 87.2532 268.34 88.288C268.34 89.3155 268.487 90.2475 268.78 91.0842C269.081 91.9208 269.533 92.5887 270.134 93.0877C270.743 93.5794 271.507 93.8253 272.424 93.8253ZM283.887 103.028V79.7784H287.806V82.5746H288.037C288.242 82.1636 288.532 81.7269 288.907 81.2646C289.281 80.7949 289.787 80.3949 290.426 80.0646C291.064 79.727 291.879 79.5582 292.87 79.5582C294.176 79.5582 295.354 79.8922 296.403 80.56C297.46 81.2205 298.297 82.2003 298.913 83.4993C299.537 84.791 299.849 86.3762 299.849 88.255C299.849 90.1117 299.544 91.6896 298.935 92.9886C298.326 94.2876 297.497 95.2784 296.447 95.9609C295.398 96.6435 294.209 96.9847 292.881 96.9847C291.912 96.9847 291.108 96.8233 290.47 96.5004C289.831 96.1774 289.318 95.7885 288.929 95.3335C288.547 94.8711 288.25 94.4344 288.037 94.0234H287.872V103.028H283.887ZM287.795 88.233C287.795 89.3265 287.949 90.2842 288.257 91.1062C288.573 91.9281 289.024 92.5703 289.611 93.0327C290.206 93.4877 290.925 93.7152 291.769 93.7152C292.649 93.7152 293.387 93.4804 293.982 93.0107C294.576 92.5336 295.024 91.8841 295.325 91.0621C295.633 90.2328 295.787 89.2898 295.787 88.233C295.787 87.1835 295.636 86.2514 295.336 85.4368C295.035 84.6222 294.587 83.9837 293.993 83.5213C293.398 83.0589 292.657 82.8278 291.769 82.8278C290.917 82.8278 290.195 83.0516 289.6 83.4993C289.006 83.947 288.554 84.5745 288.246 85.3817C287.945 86.189 287.795 87.1394 287.795 88.233Z" fill="white"/>
<path d="M41.5506 163.688H37.8123V153.142H41.5815C42.6422 153.142 43.5553 153.353 44.3208 153.775C45.0863 154.194 45.675 154.797 46.087 155.583C46.5023 156.369 46.71 157.309 46.71 158.404C46.71 159.503 46.5023 160.447 46.087 161.237C45.675 162.026 45.0829 162.632 44.3105 163.054C43.5416 163.476 42.6216 163.688 41.5506 163.688ZM40.0419 161.777H41.4579C42.117 161.777 42.6714 161.66 43.1211 161.427C43.5742 161.19 43.914 160.825 44.1406 160.33C44.3706 159.833 44.4856 159.191 44.4856 158.404C44.4856 157.625 44.3706 156.988 44.1406 156.494C43.914 156 43.5759 155.636 43.1262 155.403C42.6765 155.169 42.1221 155.052 41.463 155.052H40.0419V161.777ZM51.9248 163.842C51.1113 163.842 50.411 163.677 49.824 163.348C49.2404 163.015 48.7907 162.544 48.4749 161.937C48.1591 161.326 48.0012 160.603 48.0012 159.769C48.0012 158.955 48.1591 158.241 48.4749 157.627C48.7907 157.012 49.2353 156.534 49.8085 156.19C50.3852 155.847 51.0615 155.675 51.8373 155.675C52.3591 155.675 52.8448 155.76 53.2945 155.928C53.7476 156.093 54.1424 156.341 54.4788 156.674C54.8186 157.007 55.083 157.426 55.2718 157.931C55.4606 158.432 55.555 159.019 55.555 159.692V160.294H48.8765V158.935H53.4902C53.4902 158.619 53.4215 158.339 53.2842 158.096C53.1469 157.852 52.9564 157.661 52.7126 157.524C52.4724 157.383 52.1926 157.313 51.8733 157.313C51.5404 157.313 51.2451 157.39 50.9877 157.545C50.7337 157.696 50.5346 157.9 50.3904 158.157C50.2462 158.411 50.1724 158.695 50.169 159.007V160.299C50.169 160.691 50.2411 161.029 50.3852 161.314C50.5328 161.599 50.7405 161.818 51.0083 161.973C51.276 162.127 51.5936 162.205 51.9609 162.205C52.2046 162.205 52.4277 162.17 52.6303 162.102C52.8328 162.033 53.0061 161.93 53.1503 161.793C53.2945 161.655 53.4043 161.487 53.4799 161.288L55.5086 161.422C55.4057 161.909 55.1945 162.335 54.8753 162.699C54.5595 163.059 54.151 163.341 53.6498 163.543C53.152 163.742 52.5771 163.842 51.9248 163.842ZM63.9468 163.842C63.1332 163.842 62.433 163.677 61.8459 163.348C61.2624 163.015 60.8127 162.544 60.4969 161.937C60.1811 161.326 60.0231 160.603 60.0231 159.769C60.0231 158.955 60.1811 158.241 60.4969 157.627C60.8127 157.012 61.2572 156.534 61.8305 156.19C62.4072 155.847 63.0835 155.675 63.8593 155.675C64.381 155.675 64.8668 155.76 65.3165 155.928C65.7696 156.093 66.1644 156.341 66.5008 156.674C66.8406 157.007 67.1049 157.426 67.2937 157.931C67.4825 158.432 67.5769 159.019 67.5769 159.692V160.294H60.8985V158.935H65.5121C65.5121 158.619 65.4435 158.339 65.3062 158.096C65.1689 157.852 64.9783 157.661 64.7346 157.524C64.4943 157.383 64.2146 157.313 63.8953 157.313C63.5623 157.313 63.2671 157.39 63.0097 157.545C62.7556 157.696 62.5565 157.9 62.4124 158.157C62.2682 158.411 62.1944 158.695 62.1909 159.007V160.299C62.1909 160.691 62.263 161.029 62.4072 161.314C62.5548 161.599 62.7625 161.818 63.0303 161.973C63.298 162.127 63.6155 162.205 63.9828 162.205C64.2266 162.205 64.4497 162.17 64.6522 162.102C64.8548 162.033 65.0281 161.93 65.1723 161.793C65.3165 161.655 65.4263 161.487 65.5018 161.288L67.5306 161.422C67.4276 161.909 67.2165 162.335 66.8973 162.699C66.5814 163.059 66.1729 163.341 65.6718 163.543C65.174 163.742 64.599 163.842 63.9468 163.842ZM72.6128 163.842C71.7992 163.842 71.099 163.677 70.512 163.348C69.9284 163.015 69.4787 162.544 69.1629 161.937C68.8471 161.326 68.6892 160.603 68.6892 159.769C68.6892 158.955 68.8471 158.241 69.1629 157.627C69.4787 157.012 69.9232 156.534 70.4965 156.19C71.0732 155.847 71.7495 155.675 72.5253 155.675C73.0471 155.675 73.5328 155.76 73.9825 155.928C74.4356 156.093 74.8304 156.341 75.1668 156.674C75.5066 157.007 75.771 157.426 75.9598 157.931C76.1486 158.432 76.243 159.019 76.243 159.692V160.294H69.5645V158.935H74.1782C74.1782 158.619 74.1095 158.339 73.9722 158.096C73.8349 157.852 73.6444 157.661 73.4006 157.524C73.1603 157.383 72.8806 157.313 72.5613 157.313C72.2283 157.313 71.9331 157.39 71.6757 157.545C71.4216 157.696 71.2225 157.9 71.0784 158.157C70.9342 158.411 70.8604 158.695 70.857 159.007V160.299C70.857 160.691 70.929 161.029 71.0732 161.314C71.2208 161.599 71.4285 161.818 71.6963 161.973C71.964 162.127 72.2816 162.205 72.6489 162.205C72.8926 162.205 73.1157 162.17 73.3182 162.102C73.5208 162.033 73.6941 161.93 73.8383 161.793C73.9825 161.655 74.0923 161.487 74.1679 161.288L76.1966 161.422C76.0936 161.909 75.8825 162.335 75.5633 162.699C75.2475 163.059 74.839 163.341 74.3378 163.543C73.84 163.742 73.265 163.842 72.6128 163.842ZM77.6744 163.688V155.778H79.801V157.158H79.8834C80.0276 156.667 80.2696 156.297 80.6094 156.046C80.9493 155.792 81.3406 155.665 81.7834 155.665C81.8933 155.665 82.0117 155.672 82.1387 155.686C82.2658 155.699 82.3773 155.718 82.4734 155.742V157.689C82.3705 157.658 82.228 157.63 82.0461 157.606C81.8641 157.582 81.6976 157.57 81.5466 157.57C81.2239 157.57 80.9356 157.641 80.6815 157.781C80.4309 157.919 80.2318 158.111 80.0842 158.358C79.9401 158.605 79.868 158.89 79.868 159.213V163.688H77.6744ZM90.1881 158.034L88.18 158.157C88.1456 157.986 88.0718 157.831 87.9586 157.694C87.8453 157.553 87.696 157.442 87.5106 157.359C87.3287 157.273 87.1107 157.23 86.8566 157.23C86.5168 157.23 86.2302 157.303 85.9967 157.447C85.7633 157.587 85.6466 157.776 85.6466 158.013C85.6466 158.202 85.7221 158.362 85.8732 158.492C86.0242 158.622 86.2834 158.727 86.6507 158.806L88.0821 159.094C88.8511 159.252 89.4244 159.506 89.802 159.857C90.1796 160.207 90.3684 160.667 90.3684 161.237C90.3684 161.755 90.2156 162.21 89.9101 162.601C89.608 162.992 89.1926 163.298 88.664 163.518C88.1388 163.734 87.5329 163.842 86.8463 163.842C85.7994 163.842 84.9652 163.624 84.3439 163.188C83.726 162.749 83.3638 162.151 83.2574 161.396L85.4149 161.283C85.4801 161.602 85.638 161.846 85.8886 162.014C86.1392 162.179 86.4602 162.261 86.8515 162.261C87.236 162.261 87.5449 162.187 87.7783 162.04C88.0152 161.889 88.1354 161.695 88.1388 161.458C88.1354 161.259 88.0512 161.096 87.8865 160.969C87.7217 160.838 87.4677 160.739 87.1244 160.67L85.7547 160.397C84.9824 160.243 84.4074 159.975 84.0298 159.594C83.6556 159.213 83.4685 158.727 83.4685 158.137C83.4685 157.629 83.6058 157.191 83.8804 156.824C84.1585 156.456 84.5481 156.173 85.0493 155.974C85.5539 155.775 86.1443 155.675 86.8206 155.675C87.8195 155.675 88.6056 155.887 89.1789 156.309C89.7556 156.731 90.092 157.306 90.1881 158.034ZM95.9565 155.778V157.426H91.1935V155.778H95.9565ZM92.2748 153.884H94.4684V161.257C94.4684 161.46 94.4993 161.618 94.5611 161.731C94.6228 161.841 94.7087 161.918 94.8185 161.963C94.9318 162.007 95.0622 162.029 95.2099 162.029C95.3128 162.029 95.4158 162.021 95.5188 162.004C95.6218 161.983 95.7007 161.968 95.7557 161.957L96.1007 163.59C95.9908 163.624 95.8363 163.663 95.6372 163.708C95.4381 163.756 95.1961 163.785 94.9112 163.796C94.3826 163.816 93.9191 163.746 93.5209 163.585C93.1262 163.423 92.8189 163.173 92.5992 162.833C92.3795 162.493 92.2714 162.064 92.2748 161.545V153.884ZM100.905 163.842C100.091 163.842 99.391 163.677 98.804 163.348C98.2204 163.015 97.7707 162.544 97.4549 161.937C97.1391 161.326 96.9812 160.603 96.9812 159.769C96.9812 158.955 97.1391 158.241 97.4549 157.627C97.7707 157.012 98.2152 156.534 98.7885 156.19C99.3652 155.847 100.041 155.675 100.817 155.675C101.339 155.675 101.825 155.76 102.274 155.928C102.728 156.093 103.122 156.341 103.459 156.674C103.799 157.007 104.063 157.426 104.252 157.931C104.441 158.432 104.535 159.019 104.535 159.692V160.294H97.8565V158.935H102.47C102.47 158.619 102.401 158.339 102.264 158.096C102.127 157.852 101.936 157.661 101.693 157.524C101.452 157.383 101.173 157.313 100.853 157.313C100.52 157.313 100.225 157.39 99.9677 157.545C99.7136 157.696 99.5145 157.9 99.3704 158.157C99.2262 158.411 99.1524 158.695 99.1489 159.007V160.299C99.1489 160.691 99.221 161.029 99.3652 161.314C99.5128 161.599 99.7205 161.818 99.9883 161.973C100.256 162.127 100.574 162.205 100.941 162.205C101.185 162.205 101.408 162.17 101.61 162.102C101.813 162.033 101.986 161.93 102.13 161.793C102.274 161.655 102.384 161.487 102.46 161.288L104.489 161.422C104.386 161.909 104.175 162.335 103.855 162.699C103.539 163.059 103.131 163.341 102.63 163.543C102.132 163.742 101.557 163.842 100.905 163.842ZM109.364 163.688V153.142H111.557V157.107H111.624C111.72 156.894 111.859 156.678 112.041 156.458C112.226 156.235 112.467 156.05 112.762 155.902C113.061 155.751 113.431 155.675 113.874 155.675C114.451 155.675 114.983 155.826 115.47 156.129C115.958 156.427 116.348 156.879 116.639 157.483C116.931 158.084 117.077 158.837 117.077 159.743C117.077 160.625 116.935 161.37 116.65 161.978C116.368 162.582 115.984 163.04 115.496 163.353C115.012 163.662 114.47 163.816 113.869 163.816C113.443 163.816 113.081 163.746 112.783 163.605C112.487 163.464 112.245 163.288 112.057 163.075C111.868 162.858 111.724 162.641 111.624 162.421H111.526V163.688H109.364ZM111.511 159.733C111.511 160.203 111.576 160.613 111.706 160.964C111.837 161.314 112.026 161.587 112.273 161.782C112.52 161.975 112.82 162.071 113.174 162.071C113.531 162.071 113.833 161.973 114.08 161.777C114.327 161.578 114.514 161.303 114.641 160.953C114.772 160.6 114.837 160.193 114.837 159.733C114.837 159.276 114.774 158.875 114.647 158.528C114.52 158.181 114.332 157.91 114.085 157.714C113.838 157.519 113.534 157.421 113.174 157.421C112.817 157.421 112.515 157.515 112.268 157.704C112.024 157.893 111.837 158.161 111.706 158.507C111.576 158.854 111.511 159.263 111.511 159.733ZM118.541 163.688V155.778H120.734V163.688H118.541ZM119.643 154.759C119.316 154.759 119.037 154.651 118.803 154.434C118.573 154.215 118.458 153.952 118.458 153.647C118.458 153.345 118.573 153.085 118.803 152.869C119.037 152.649 119.316 152.54 119.643 152.54C119.969 152.54 120.247 152.649 120.477 152.869C120.71 153.085 120.827 153.345 120.827 153.647C120.827 153.952 120.71 154.215 120.477 154.434C120.247 154.651 119.969 154.759 119.643 154.759ZM126.065 163.842C125.265 163.842 124.573 163.672 123.99 163.332C123.41 162.989 122.962 162.512 122.646 161.901C122.33 161.286 122.172 160.574 122.172 159.764C122.172 158.947 122.33 158.233 122.646 157.622C122.962 157.007 123.41 156.53 123.99 156.19C124.573 155.847 125.265 155.675 126.065 155.675C126.865 155.675 127.555 155.847 128.135 156.19C128.718 156.53 129.168 157.007 129.484 157.622C129.8 158.233 129.958 158.947 129.958 159.764C129.958 160.574 129.8 161.286 129.484 161.901C129.168 162.512 128.718 162.989 128.135 163.332C127.555 163.672 126.865 163.842 126.065 163.842ZM126.075 162.143C126.439 162.143 126.743 162.04 126.987 161.834C127.23 161.624 127.414 161.339 127.537 160.979C127.664 160.619 127.728 160.208 127.728 159.748C127.728 159.288 127.664 158.878 127.537 158.518C127.414 158.157 127.23 157.872 126.987 157.663C126.743 157.454 126.439 157.349 126.075 157.349C125.708 157.349 125.399 157.454 125.148 157.663C124.901 157.872 124.714 158.157 124.587 158.518C124.463 158.878 124.402 159.288 124.402 159.748C124.402 160.208 124.463 160.619 124.587 160.979C124.714 161.339 124.901 161.624 125.148 161.834C125.399 162.04 125.708 162.143 126.075 162.143ZM137.965 158.034L135.956 158.157C135.922 157.986 135.848 157.831 135.735 157.694C135.622 157.553 135.472 157.442 135.287 157.359C135.105 157.273 134.887 157.23 134.633 157.23C134.293 157.23 134.007 157.303 133.773 157.447C133.54 157.587 133.423 157.776 133.423 158.013C133.423 158.202 133.498 158.362 133.65 158.492C133.801 158.622 134.06 158.727 134.427 158.806L135.859 159.094C136.627 159.252 137.201 159.506 137.578 159.857C137.956 160.207 138.145 160.667 138.145 161.237C138.145 161.755 137.992 162.21 137.686 162.601C137.384 162.992 136.969 163.298 136.44 163.518C135.915 163.734 135.309 163.842 134.623 163.842C133.576 163.842 132.742 163.624 132.12 163.188C131.502 162.749 131.14 162.151 131.034 161.396L133.191 161.283C133.256 161.602 133.414 161.846 133.665 162.014C133.916 162.179 134.237 162.261 134.628 162.261C135.012 162.261 135.321 162.187 135.555 162.04C135.792 161.889 135.912 161.695 135.915 161.458C135.912 161.259 135.828 161.096 135.663 160.969C135.498 160.838 135.244 160.739 134.901 160.67L133.531 160.397C132.759 160.243 132.184 159.975 131.806 159.594C131.432 159.213 131.245 158.727 131.245 158.137C131.245 157.629 131.382 157.191 131.657 156.824C131.935 156.456 132.324 156.173 132.826 155.974C133.33 155.775 133.921 155.675 134.597 155.675C135.596 155.675 136.382 155.887 136.955 156.309C137.532 156.731 137.868 157.306 137.965 158.034ZM143.099 163.842C142.289 163.842 141.593 163.67 141.009 163.327C140.429 162.98 139.983 162.5 139.67 161.885C139.361 161.271 139.207 160.564 139.207 159.764C139.207 158.954 139.363 158.243 139.675 157.632C139.991 157.018 140.439 156.539 141.019 156.195C141.599 155.849 142.289 155.675 143.089 155.675C143.779 155.675 144.383 155.801 144.902 156.051C145.42 156.302 145.83 156.654 146.132 157.107C146.434 157.56 146.601 158.092 146.632 158.703H144.562C144.503 158.308 144.349 157.991 144.098 157.751C143.851 157.507 143.527 157.385 143.125 157.385C142.785 157.385 142.488 157.478 142.234 157.663C141.984 157.845 141.788 158.111 141.647 158.461C141.507 158.811 141.436 159.235 141.436 159.733C141.436 160.238 141.505 160.667 141.642 161.02C141.783 161.374 141.98 161.643 142.234 161.829C142.488 162.014 142.785 162.107 143.125 162.107C143.376 162.107 143.601 162.055 143.8 161.952C144.002 161.849 144.169 161.7 144.299 161.504C144.433 161.305 144.521 161.067 144.562 160.789H146.632C146.597 161.393 146.433 161.925 146.137 162.385C145.846 162.841 145.442 163.198 144.927 163.456C144.413 163.713 143.803 163.842 143.099 163.842ZM151.61 163.842C150.81 163.842 150.118 163.672 149.535 163.332C148.955 162.989 148.507 162.512 148.191 161.901C147.875 161.286 147.717 160.574 147.717 159.764C147.717 158.947 147.875 158.233 148.191 157.622C148.507 157.007 148.955 156.53 149.535 156.19C150.118 155.847 150.81 155.675 151.61 155.675C152.41 155.675 153.1 155.847 153.68 156.19C154.263 156.53 154.713 157.007 155.029 157.622C155.345 158.233 155.503 158.947 155.503 159.764C155.503 160.574 155.345 161.286 155.029 161.901C154.713 162.512 154.263 162.989 153.68 163.332C153.1 163.672 152.41 163.842 151.61 163.842ZM151.62 162.143C151.984 162.143 152.288 162.04 152.531 161.834C152.775 161.624 152.959 161.339 153.082 160.979C153.209 160.619 153.273 160.208 153.273 159.748C153.273 159.288 153.209 158.878 153.082 158.518C152.959 158.157 152.775 157.872 152.531 157.663C152.288 157.454 151.984 157.349 151.62 157.349C151.253 157.349 150.944 157.454 150.693 157.663C150.446 157.872 150.259 158.157 150.132 158.518C150.008 158.878 149.947 159.288 149.947 159.748C149.947 160.208 150.008 160.619 150.132 160.979C150.259 161.339 150.446 161.624 150.693 161.834C150.944 162.04 151.253 162.143 151.62 162.143ZM160.502 163.842C159.702 163.842 159.011 163.672 158.427 163.332C157.847 162.989 157.399 162.512 157.083 161.901C156.767 161.286 156.61 160.574 156.61 159.764C156.61 158.947 156.767 158.233 157.083 157.622C157.399 157.007 157.847 156.53 158.427 156.19C159.011 155.847 159.702 155.675 160.502 155.675C161.302 155.675 161.992 155.847 162.572 156.19C163.156 156.53 163.606 157.007 163.921 157.622C164.237 158.233 164.395 158.947 164.395 159.764C164.395 160.574 164.237 161.286 163.921 161.901C163.606 162.512 163.156 162.989 162.572 163.332C161.992 163.672 161.302 163.842 160.502 163.842ZM160.513 162.143C160.877 162.143 161.18 162.04 161.424 161.834C161.668 161.624 161.851 161.339 161.975 160.979C162.102 160.619 162.166 160.208 162.166 159.748C162.166 159.288 162.102 158.878 161.975 158.518C161.851 158.157 161.668 157.872 161.424 157.663C161.18 157.454 160.877 157.349 160.513 157.349C160.145 157.349 159.836 157.454 159.586 157.663C159.339 157.872 159.152 158.157 159.025 158.518C158.901 158.878 158.839 159.288 158.839 159.748C158.839 160.208 158.901 160.619 159.025 160.979C159.152 161.339 159.339 161.624 159.586 161.834C159.836 162.04 160.145 162.143 160.513 162.143ZM165.821 166.653V155.778H167.984V157.107H168.082C168.178 156.894 168.317 156.678 168.499 156.458C168.684 156.235 168.925 156.05 169.22 155.902C169.518 155.751 169.889 155.675 170.332 155.675C170.909 155.675 171.441 155.826 171.928 156.129C172.416 156.427 172.805 156.879 173.097 157.483C173.389 158.084 173.535 158.837 173.535 159.743C173.535 160.625 173.392 161.37 173.107 161.978C172.826 162.582 172.441 163.04 171.954 163.353C171.47 163.662 170.928 163.816 170.327 163.816C169.901 163.816 169.539 163.746 169.24 163.605C168.945 163.464 168.703 163.288 168.514 163.075C168.326 162.858 168.181 162.641 168.082 162.421H168.015V166.653H165.821ZM167.969 159.733C167.969 160.203 168.034 160.613 168.164 160.964C168.295 161.314 168.484 161.587 168.731 161.782C168.978 161.975 169.278 162.071 169.632 162.071C169.989 162.071 170.291 161.973 170.538 161.777C170.785 161.578 170.972 161.303 171.099 160.953C171.23 160.6 171.295 160.193 171.295 159.733C171.295 159.276 171.231 158.875 171.104 158.528C170.977 158.181 170.79 157.91 170.543 157.714C170.296 157.519 169.992 157.421 169.632 157.421C169.275 157.421 168.973 157.515 168.726 157.704C168.482 157.893 168.295 158.161 168.164 158.507C168.034 158.854 167.969 159.263 167.969 159.733ZM179.913 163.688L177.761 155.778H179.98L181.206 161.092H181.278L182.555 155.778H184.733L186.031 161.061H186.097L187.302 155.778H189.516L187.369 163.688H185.047L183.688 158.713H183.59L182.23 163.688H179.913ZM192.942 163.837C192.437 163.837 191.988 163.749 191.593 163.574C191.198 163.396 190.886 163.133 190.656 162.786C190.429 162.436 190.316 162 190.316 161.479C190.316 161.039 190.397 160.67 190.558 160.371C190.719 160.073 190.939 159.833 191.217 159.651C191.495 159.469 191.811 159.331 192.164 159.239C192.521 159.146 192.896 159.081 193.287 159.043C193.747 158.995 194.118 158.95 194.399 158.909C194.681 158.864 194.885 158.799 195.012 158.713C195.139 158.628 195.202 158.501 195.202 158.332V158.301C195.202 157.975 195.099 157.723 194.893 157.545C194.691 157.366 194.403 157.277 194.028 157.277C193.634 157.277 193.32 157.364 193.086 157.539C192.853 157.711 192.698 157.927 192.623 158.188L190.594 158.023C190.697 157.543 190.899 157.127 191.202 156.777C191.504 156.424 191.893 156.153 192.37 155.964C192.851 155.772 193.407 155.675 194.039 155.675C194.478 155.675 194.899 155.727 195.3 155.83C195.705 155.933 196.064 156.093 196.376 156.309C196.692 156.525 196.941 156.803 197.123 157.143C197.305 157.479 197.396 157.883 197.396 158.353V163.688H195.316V162.591H195.254C195.127 162.838 194.957 163.056 194.744 163.245C194.531 163.43 194.276 163.576 193.977 163.682C193.678 163.785 193.333 163.837 192.942 163.837ZM193.57 162.323C193.893 162.323 194.178 162.259 194.425 162.132C194.672 162.002 194.866 161.827 195.007 161.607C195.148 161.388 195.218 161.139 195.218 160.861V160.021C195.149 160.066 195.055 160.107 194.935 160.145C194.818 160.179 194.686 160.212 194.538 160.243C194.391 160.27 194.243 160.296 194.095 160.32C193.948 160.341 193.814 160.359 193.694 160.377C193.436 160.414 193.211 160.474 193.019 160.557C192.827 160.639 192.678 160.751 192.571 160.892C192.465 161.029 192.412 161.2 192.412 161.406C192.412 161.705 192.52 161.933 192.736 162.091C192.956 162.246 193.234 162.323 193.57 162.323ZM201.353 163.837C200.848 163.837 200.399 163.749 200.004 163.574C199.609 163.396 199.297 163.133 199.067 162.786C198.84 162.436 198.727 162 198.727 161.479C198.727 161.039 198.808 160.67 198.969 160.371C199.13 160.073 199.35 159.833 199.628 159.651C199.906 159.469 200.222 159.331 200.576 159.239C200.933 159.146 201.307 159.081 201.698 159.043C202.158 158.995 202.529 158.95 202.81 158.909C203.092 158.864 203.296 158.799 203.423 158.713C203.55 158.628 203.614 158.501 203.614 158.332V158.301C203.614 157.975 203.511 157.723 203.305 157.545C203.102 157.366 202.814 157.277 202.44 157.277C202.045 157.277 201.731 157.364 201.497 157.539C201.264 157.711 201.109 157.927 201.034 158.188L199.005 158.023C199.108 157.543 199.311 157.127 199.613 156.777C199.915 156.424 200.304 156.153 200.782 155.964C201.262 155.772 201.818 155.675 202.45 155.675C202.889 155.675 203.31 155.727 203.711 155.83C204.116 155.933 204.475 156.093 204.788 156.309C205.103 156.525 205.352 156.803 205.534 157.143C205.716 157.479 205.807 157.883 205.807 158.353V163.688H203.727V162.591H203.665C203.538 162.838 203.368 163.056 203.155 163.245C202.942 163.43 202.687 163.576 202.388 163.682C202.089 163.785 201.744 163.837 201.353 163.837ZM201.981 162.323C202.304 162.323 202.589 162.259 202.836 162.132C203.083 162.002 203.277 161.827 203.418 161.607C203.559 161.388 203.629 161.139 203.629 160.861V160.021C203.56 160.066 203.466 160.107 203.346 160.145C203.229 160.179 203.097 160.212 202.949 160.243C202.802 160.27 202.654 160.296 202.507 160.32C202.359 160.341 202.225 160.359 202.105 160.377C201.847 160.414 201.623 160.474 201.43 160.557C201.238 160.639 201.089 160.751 200.982 160.892C200.876 161.029 200.823 161.2 200.823 161.406C200.823 161.705 200.931 161.933 201.147 162.091C201.367 162.246 201.645 162.323 201.981 162.323ZM207.509 163.688V155.778H209.635V157.158H209.718C209.862 156.667 210.104 156.297 210.444 156.046C210.784 155.792 211.175 155.665 211.618 155.665C211.728 155.665 211.846 155.672 211.973 155.686C212.1 155.699 212.212 155.718 212.308 155.742V157.689C212.205 157.658 212.062 157.63 211.881 157.606C211.699 157.582 211.532 157.57 211.381 157.57C211.058 157.57 210.77 157.641 210.516 157.781C210.265 157.919 210.066 158.111 209.919 158.358C209.775 158.605 209.702 158.89 209.702 159.213V163.688H207.509ZM216.798 155.778H218.991V164.079C218.991 164.69 218.871 165.184 218.631 165.562C218.391 165.939 218.046 166.216 217.596 166.391C217.15 166.566 216.616 166.653 215.995 166.653C215.919 166.653 215.847 166.652 215.778 166.648C215.706 166.648 215.631 166.647 215.552 166.643V164.928C215.61 164.932 215.662 164.934 215.706 164.934C215.748 164.937 215.792 164.939 215.84 164.939C216.194 164.939 216.441 164.863 216.582 164.712C216.726 164.565 216.798 164.341 216.798 164.043V155.778ZM217.89 154.759C217.567 154.759 217.289 154.651 217.055 154.434C216.822 154.215 216.705 153.952 216.705 153.647C216.705 153.345 216.822 153.085 217.055 152.869C217.289 152.649 217.567 152.54 217.89 152.54C218.219 152.54 218.499 152.649 218.729 152.869C218.962 153.085 219.079 153.345 219.079 153.647C219.079 153.952 218.962 154.215 218.729 154.434C218.499 154.651 218.219 154.759 217.89 154.759ZM220.749 163.688V155.778H222.942V163.688H220.749ZM221.851 154.759C221.524 154.759 221.245 154.651 221.011 154.434C220.781 154.215 220.666 153.952 220.666 153.647C220.666 153.345 220.781 153.085 221.011 152.869C221.245 152.649 221.524 152.54 221.851 152.54C222.177 152.54 222.455 152.649 222.685 152.869C222.918 153.085 223.035 153.345 223.035 153.647C223.035 153.952 222.918 154.215 222.685 154.434C222.455 154.651 222.177 154.759 221.851 154.759ZM224.699 155.778H226.893V164.079C226.893 164.69 226.773 165.184 226.532 165.562C226.292 165.939 225.947 166.216 225.497 166.391C225.051 166.566 224.517 166.653 223.896 166.653C223.821 166.653 223.748 166.652 223.68 166.648C223.608 166.648 223.532 166.647 223.453 166.643V164.928C223.512 164.932 223.563 164.934 223.608 164.934C223.649 164.937 223.694 164.939 223.742 164.939C224.095 164.939 224.342 164.863 224.483 164.712C224.627 164.565 224.699 164.341 224.699 164.043V155.778ZM225.791 154.759C225.468 154.759 225.19 154.651 224.957 154.434C224.723 154.215 224.607 153.952 224.607 153.647C224.607 153.345 224.723 153.085 224.957 152.869C225.19 152.649 225.468 152.54 225.791 152.54C226.12 152.54 226.4 152.649 226.63 152.869C226.864 153.085 226.98 153.345 226.98 153.647C226.98 153.952 226.864 154.215 226.63 154.434C226.4 154.651 226.12 154.759 225.791 154.759ZM232.047 163.688V153.142H234.241V157.107H234.308C234.404 156.894 234.543 156.678 234.725 156.458C234.91 156.235 235.15 156.05 235.446 155.902C235.744 155.751 236.115 155.675 236.558 155.675C237.135 155.675 237.667 155.826 238.154 156.129C238.642 156.427 239.031 156.879 239.323 157.483C239.615 158.084 239.761 158.837 239.761 159.743C239.761 160.625 239.618 161.37 239.333 161.978C239.052 162.582 238.667 163.04 238.18 163.353C237.696 163.662 237.153 163.816 236.553 163.816C236.127 163.816 235.765 163.746 235.466 163.605C235.171 163.464 234.929 163.288 234.74 163.075C234.551 162.858 234.407 162.641 234.308 162.421H234.21V163.688H232.047ZM234.194 159.733C234.194 160.203 234.26 160.613 234.39 160.964C234.52 161.314 234.709 161.587 234.956 161.782C235.204 161.975 235.504 162.071 235.858 162.071C236.215 162.071 236.517 161.973 236.764 161.777C237.011 161.578 237.198 161.303 237.325 160.953C237.455 160.6 237.521 160.193 237.521 159.733C237.521 159.276 237.457 158.875 237.33 158.528C237.203 158.181 237.016 157.91 236.769 157.714C236.522 157.519 236.218 157.421 235.858 157.421C235.501 157.421 235.198 157.515 234.951 157.704C234.708 157.893 234.52 158.161 234.39 158.507C234.26 158.854 234.194 159.263 234.194 159.733ZM244.829 163.842C244.015 163.842 243.315 163.677 242.728 163.348C242.144 163.015 241.695 162.544 241.379 161.937C241.063 161.326 240.905 160.603 240.905 159.769C240.905 158.955 241.063 158.241 241.379 157.627C241.695 157.012 242.139 156.534 242.712 156.19C243.289 155.847 243.965 155.675 244.741 155.675C245.263 155.675 245.749 155.76 246.198 155.928C246.651 156.093 247.046 156.341 247.383 156.674C247.722 157.007 247.987 157.426 248.176 157.931C248.364 158.432 248.459 159.019 248.459 159.692V160.294H241.78V158.935H246.394C246.394 158.619 246.325 158.339 246.188 158.096C246.051 157.852 245.86 157.661 245.616 157.524C245.376 157.383 245.096 157.313 244.777 157.313C244.444 157.313 244.149 157.39 243.891 157.545C243.637 157.696 243.438 157.9 243.294 158.157C243.15 158.411 243.076 158.695 243.073 159.007V160.299C243.073 160.691 243.145 161.029 243.289 161.314C243.437 161.599 243.644 161.818 243.912 161.973C244.18 162.127 244.497 162.205 244.865 162.205C245.108 162.205 245.332 162.17 245.534 162.102C245.737 162.033 245.91 161.93 246.054 161.793C246.198 161.655 246.308 161.487 246.384 161.288L248.412 161.422C248.309 161.909 248.098 162.335 247.779 162.699C247.463 163.059 247.055 163.341 246.554 163.543C246.056 163.742 245.481 163.842 244.829 163.842ZM249.89 166.653V155.778H252.053V157.107H252.151C252.247 156.894 252.386 156.678 252.568 156.458C252.753 156.235 252.993 156.05 253.289 155.902C253.587 155.751 253.958 155.675 254.401 155.675C254.978 155.675 255.51 155.826 255.997 156.129C256.485 156.427 256.874 156.879 257.166 157.483C257.458 158.084 257.604 158.837 257.604 159.743C257.604 160.625 257.461 161.37 257.176 161.978C256.895 162.582 256.51 163.04 256.023 163.353C255.539 163.662 254.996 163.816 254.396 163.816C253.97 163.816 253.608 163.746 253.309 163.605C253.014 163.464 252.772 163.288 252.583 163.075C252.394 162.858 252.25 162.641 252.151 162.421H252.084V166.653H249.89ZM252.037 159.733C252.037 160.203 252.103 160.613 252.233 160.964C252.364 161.314 252.552 161.587 252.8 161.782C253.047 161.975 253.347 162.071 253.701 162.071C254.058 162.071 254.36 161.973 254.607 161.777C254.854 161.578 255.041 161.303 255.168 160.953C255.299 160.6 255.364 160.193 255.364 159.733C255.364 159.276 255.3 158.875 255.173 158.528C255.046 158.181 254.859 157.91 254.612 157.714C254.365 157.519 254.061 157.421 253.701 157.421C253.344 157.421 253.042 157.515 252.794 157.704C252.551 157.893 252.364 158.161 252.233 158.507C252.103 158.854 252.037 159.263 252.037 159.733ZM261.321 163.837C260.817 163.837 260.367 163.749 259.972 163.574C259.578 163.396 259.265 163.133 259.035 162.786C258.809 162.436 258.695 162 258.695 161.479C258.695 161.039 258.776 160.67 258.937 160.371C259.099 160.073 259.318 159.833 259.596 159.651C259.874 159.469 260.19 159.331 260.544 159.239C260.901 159.146 261.275 159.081 261.666 159.043C262.126 158.995 262.497 158.95 262.779 158.909C263.06 158.864 263.264 158.799 263.391 158.713C263.518 158.628 263.582 158.501 263.582 158.332V158.301C263.582 157.975 263.479 157.723 263.273 157.545C263.07 157.366 262.782 157.277 262.408 157.277C262.013 157.277 261.699 157.364 261.466 157.539C261.232 157.711 261.078 157.927 261.002 158.188L258.973 158.023C259.076 157.543 259.279 157.127 259.581 156.777C259.883 156.424 260.273 156.153 260.75 155.964C261.23 155.772 261.786 155.675 262.418 155.675C262.858 155.675 263.278 155.727 263.68 155.83C264.085 155.933 264.443 156.093 264.756 156.309C265.072 156.525 265.321 156.803 265.502 157.143C265.684 157.479 265.775 157.883 265.775 158.353V163.688H263.695V162.591H263.633C263.506 162.838 263.336 163.056 263.124 163.245C262.911 163.43 262.655 163.576 262.356 163.682C262.058 163.785 261.713 163.837 261.321 163.837ZM261.95 162.323C262.272 162.323 262.557 162.259 262.804 162.132C263.051 162.002 263.245 161.827 263.386 161.607C263.527 161.388 263.597 161.139 263.597 160.861V160.021C263.529 160.066 263.434 160.107 263.314 160.145C263.197 160.179 263.065 160.212 262.918 160.243C262.77 160.27 262.622 160.296 262.475 160.32C262.327 160.341 262.193 160.359 262.073 160.377C261.816 160.414 261.591 160.474 261.399 160.557C261.206 160.639 261.057 160.751 260.951 160.892C260.844 161.029 260.791 161.2 260.791 161.406C260.791 161.705 260.899 161.933 261.115 162.091C261.335 162.246 261.613 162.323 261.95 162.323ZM269.732 163.837C269.228 163.837 268.778 163.749 268.383 163.574C267.989 163.396 267.676 163.133 267.446 162.786C267.22 162.436 267.106 162 267.106 161.479C267.106 161.039 267.187 160.67 267.348 160.371C267.51 160.073 267.729 159.833 268.008 159.651C268.286 159.469 268.601 159.331 268.955 159.239C269.312 159.146 269.686 159.081 270.077 159.043C270.537 158.995 270.908 158.95 271.19 158.909C271.471 158.864 271.675 158.799 271.802 158.713C271.929 158.628 271.993 158.501 271.993 158.332V158.301C271.993 157.975 271.89 157.723 271.684 157.545C271.481 157.366 271.193 157.277 270.819 157.277C270.424 157.277 270.11 157.364 269.877 157.539C269.643 157.711 269.489 157.927 269.413 158.188L267.384 158.023C267.487 157.543 267.69 157.127 267.992 156.777C268.294 156.424 268.684 156.153 269.161 155.964C269.642 155.772 270.198 155.675 270.829 155.675C271.269 155.675 271.689 155.727 272.091 155.83C272.496 155.933 272.855 156.093 273.167 156.309C273.483 156.525 273.732 156.803 273.914 157.143C274.096 157.479 274.187 157.883 274.187 158.353V163.688H272.106V162.591H272.044C271.917 162.838 271.748 163.056 271.535 163.245C271.322 163.43 271.066 163.576 270.767 163.682C270.469 163.785 270.124 163.837 269.732 163.837ZM270.361 162.323C270.683 162.323 270.968 162.259 271.215 162.132C271.463 162.002 271.657 161.827 271.797 161.607C271.938 161.388 272.008 161.139 272.008 160.861V160.021C271.94 160.066 271.845 160.107 271.725 160.145C271.608 160.179 271.476 160.212 271.329 160.243C271.181 160.27 271.034 160.296 270.886 160.32C270.738 160.341 270.604 160.359 270.484 160.377C270.227 160.414 270.002 160.474 269.81 160.557C269.617 160.639 269.468 160.751 269.362 160.892C269.255 161.029 269.202 161.2 269.202 161.406C269.202 161.705 269.31 161.933 269.527 162.091C269.746 162.246 270.024 162.323 270.361 162.323ZM278.082 153.142V163.688H275.888V153.142H278.082ZM284.046 155.778V157.426H279.283V155.778H284.046ZM280.364 153.884H282.558V161.257C282.558 161.46 282.589 161.618 282.65 161.731C282.712 161.841 282.798 161.918 282.908 161.963C283.021 162.007 283.152 162.029 283.299 162.029C283.402 162.029 283.505 162.021 283.608 162.004C283.711 161.983 283.79 161.968 283.845 161.957L284.19 163.59C284.08 163.624 283.926 163.663 283.727 163.708C283.527 163.756 283.285 163.785 283.001 163.796C282.472 163.816 282.008 163.746 281.61 163.585C281.216 163.423 280.908 163.173 280.689 162.833C280.469 162.493 280.361 162.064 280.364 161.545V153.884ZM290.391 163.688L288.239 155.778H290.458L291.683 161.092H291.755L293.032 155.778H295.21L296.508 161.061H296.575L297.78 155.778H299.994L297.847 163.688H295.525L294.165 158.713H294.067L292.708 163.688H290.391ZM303.42 163.837C302.915 163.837 302.465 163.749 302.07 163.574C301.676 163.396 301.363 163.133 301.133 162.786C300.907 162.436 300.793 162 300.793 161.479C300.793 161.039 300.874 160.67 301.035 160.371C301.197 160.073 301.416 159.833 301.695 159.651C301.973 159.469 302.288 159.331 302.642 159.239C302.999 159.146 303.373 159.081 303.764 159.043C304.224 158.995 304.595 158.95 304.877 158.909C305.158 158.864 305.362 158.799 305.489 158.713C305.616 158.628 305.68 158.501 305.68 158.332V158.301C305.68 157.975 305.577 157.723 305.371 157.545C305.168 157.366 304.88 157.277 304.506 157.277C304.111 157.277 303.797 157.364 303.564 157.539C303.33 157.711 303.176 157.927 303.1 158.188L301.071 158.023C301.174 157.543 301.377 157.127 301.679 156.777C301.981 156.424 302.371 156.153 302.848 155.964C303.329 155.772 303.885 155.675 304.516 155.675C304.956 155.675 305.376 155.727 305.778 155.83C306.183 155.933 306.542 156.093 306.854 156.309C307.17 156.525 307.419 156.803 307.601 157.143C307.783 157.479 307.874 157.883 307.874 158.353V163.688H305.793V162.591H305.731C305.604 162.838 305.435 163.056 305.222 163.245C305.009 163.43 304.753 163.576 304.454 163.682C304.156 163.785 303.811 163.837 303.42 163.837ZM304.048 162.323C304.37 162.323 304.655 162.259 304.902 162.132C305.15 162.002 305.344 161.827 305.484 161.607C305.625 161.388 305.695 161.139 305.695 160.861V160.021C305.627 160.066 305.532 160.107 305.412 160.145C305.296 160.179 305.163 160.212 305.016 160.243C304.868 160.27 304.721 160.296 304.573 160.32C304.425 160.341 304.291 160.359 304.171 160.377C303.914 160.414 303.689 160.474 303.497 160.557C303.305 160.639 303.155 160.751 303.049 160.892C302.942 161.029 302.889 161.2 302.889 161.406C302.889 161.705 302.997 161.933 303.214 162.091C303.433 162.246 303.711 162.323 304.048 162.323ZM313.782 155.778V157.426H309.019V155.778H313.782ZM310.101 153.884H312.294V161.257C312.294 161.46 312.325 161.618 312.387 161.731C312.449 161.841 312.534 161.918 312.644 161.963C312.757 162.007 312.888 162.029 313.036 162.029C313.139 162.029 313.241 162.021 313.344 162.004C313.447 161.983 313.526 161.968 313.581 161.957L313.926 163.59C313.816 163.624 313.662 163.663 313.463 163.708C313.264 163.756 313.022 163.785 312.737 163.796C312.208 163.816 311.745 163.746 311.347 163.585C310.952 163.423 310.645 163.173 310.425 162.833C310.205 162.493 310.097 162.064 310.101 161.545V153.884ZM322.171 163.842C321.358 163.842 320.658 163.677 320.071 163.348C319.487 163.015 319.037 162.544 318.721 161.937C318.406 161.326 318.248 160.603 318.248 159.769C318.248 158.955 318.406 158.241 318.721 157.627C319.037 157.012 319.482 156.534 320.055 156.19C320.632 155.847 321.308 155.675 322.084 155.675C322.606 155.675 323.091 155.76 323.541 155.928C323.994 156.093 324.389 156.341 324.725 156.674C325.065 157.007 325.33 157.426 325.518 157.931C325.707 158.432 325.802 159.019 325.802 159.692V160.294H319.123V158.935H323.737C323.737 158.619 323.668 158.339 323.531 158.096C323.393 157.852 323.203 157.661 322.959 157.524C322.719 157.383 322.439 157.313 322.12 157.313C321.787 157.313 321.492 157.39 321.234 157.545C320.98 157.696 320.781 157.9 320.637 158.157C320.493 158.411 320.419 158.695 320.416 159.007V160.299C320.416 160.691 320.488 161.029 320.632 161.314C320.779 161.599 320.987 161.818 321.255 161.973C321.523 162.127 321.84 162.205 322.207 162.205C322.451 162.205 322.674 162.17 322.877 162.102C323.079 162.033 323.253 161.93 323.397 161.793C323.541 161.655 323.651 161.487 323.726 161.288L325.755 161.422C325.652 161.909 325.441 162.335 325.122 162.699C324.806 163.059 324.398 163.341 323.896 163.543C323.399 163.742 322.824 163.842 322.171 163.842ZM327.233 163.688V155.778H329.36V157.158H329.442C329.586 156.667 329.828 156.297 330.168 156.046C330.508 155.792 330.899 155.665 331.342 155.665C331.452 155.665 331.57 155.672 331.697 155.686C331.824 155.699 331.936 155.718 332.032 155.742V157.689C331.929 157.658 331.787 157.63 331.605 157.606C331.423 157.582 331.256 157.57 331.105 157.57C330.783 157.57 330.494 157.641 330.24 157.781C329.99 157.919 329.79 158.111 329.643 158.358C329.499 158.605 329.427 158.89 329.427 159.213V163.688H327.233ZM339.437 163.816C338.836 163.816 338.292 163.662 337.804 163.353C337.32 163.04 336.936 162.582 336.651 161.978C336.369 161.37 336.229 160.625 336.229 159.743C336.229 158.837 336.374 158.084 336.666 157.483C336.958 156.879 337.346 156.427 337.83 156.129C338.317 155.826 338.851 155.675 339.431 155.675C339.874 155.675 340.243 155.751 340.538 155.902C340.837 156.05 341.077 156.235 341.259 156.458C341.445 156.678 341.585 156.894 341.682 157.107H341.748V153.142H343.937V163.688H341.774V162.421H341.682C341.579 162.641 341.433 162.858 341.244 163.075C341.058 163.288 340.816 163.464 340.518 163.605C340.223 163.746 339.862 163.816 339.437 163.816ZM340.132 162.071C340.485 162.071 340.784 161.975 341.028 161.782C341.275 161.587 341.464 161.314 341.594 160.964C341.728 160.613 341.795 160.203 341.795 159.733C341.795 159.263 341.73 158.854 341.599 158.507C341.469 158.161 341.28 157.893 341.033 157.704C340.786 157.515 340.485 157.421 340.132 157.421C339.771 157.421 339.467 157.519 339.22 157.714C338.973 157.91 338.786 158.181 338.659 158.528C338.532 158.875 338.468 159.276 338.468 159.733C338.468 160.193 338.532 160.6 338.659 160.953C338.789 161.303 338.977 161.578 339.22 161.777C339.467 161.973 339.771 162.071 340.132 162.071ZM345.74 163.688V155.778H347.867V157.158H347.949C348.094 156.667 348.336 156.297 348.675 156.046C349.015 155.792 349.407 155.665 349.849 155.665C349.959 155.665 350.078 155.672 350.205 155.686C350.332 155.699 350.443 155.718 350.539 155.742V157.689C350.436 157.658 350.294 157.63 350.112 157.606C349.93 157.582 349.764 157.57 349.613 157.57C349.29 157.57 349.001 157.641 348.747 157.781C348.497 157.919 348.298 158.111 348.15 158.358C348.006 158.605 347.934 158.89 347.934 159.213V163.688H345.74ZM353.702 163.837C353.198 163.837 352.748 163.749 352.353 163.574C351.958 163.396 351.646 163.133 351.416 162.786C351.189 162.436 351.076 162 351.076 161.479C351.076 161.039 351.157 160.67 351.318 160.371C351.479 160.073 351.699 159.833 351.977 159.651C352.255 159.469 352.571 159.331 352.925 159.239C353.282 159.146 353.656 159.081 354.047 159.043C354.507 158.995 354.878 158.95 355.159 158.909C355.441 158.864 355.645 158.799 355.772 158.713C355.899 158.628 355.963 158.501 355.963 158.332V158.301C355.963 157.975 355.86 157.723 355.654 157.545C355.451 157.366 355.163 157.277 354.789 157.277C354.394 157.277 354.08 157.364 353.846 157.539C353.613 157.711 353.458 157.927 353.383 158.188L351.354 158.023C351.457 157.543 351.66 157.127 351.962 156.777C352.264 156.424 352.654 156.153 353.131 155.964C353.611 155.772 354.167 155.675 354.799 155.675C355.238 155.675 355.659 155.727 356.061 155.83C356.466 155.933 356.824 156.093 357.137 156.309C357.453 156.525 357.701 156.803 357.883 157.143C358.065 157.479 358.156 157.883 358.156 158.353V163.688H356.076V162.591H356.014C355.887 162.838 355.717 163.056 355.504 163.245C355.292 163.43 355.036 163.576 354.737 163.682C354.439 163.785 354.094 163.837 353.702 163.837ZM354.33 162.323C354.653 162.323 354.938 162.259 355.185 162.132C355.432 162.002 355.626 161.827 355.767 161.607C355.908 161.388 355.978 161.139 355.978 160.861V160.021C355.909 160.066 355.815 160.107 355.695 160.145C355.578 160.179 355.446 160.212 355.298 160.243C355.151 160.27 355.003 160.296 354.856 160.32C354.708 160.341 354.574 160.359 354.454 160.377C354.197 160.414 353.972 160.474 353.779 160.557C353.587 160.639 353.438 160.751 353.331 160.892C353.225 161.029 353.172 161.2 353.172 161.406C353.172 161.705 353.28 161.933 353.496 162.091C353.716 162.246 353.994 162.323 354.33 162.323ZM362.113 163.837C361.609 163.837 361.159 163.749 360.764 163.574C360.37 163.396 360.057 163.133 359.827 162.786C359.601 162.436 359.487 162 359.487 161.479C359.487 161.039 359.568 160.67 359.729 160.371C359.891 160.073 360.11 159.833 360.388 159.651C360.666 159.469 360.982 159.331 361.336 159.239C361.693 159.146 362.067 159.081 362.458 159.043C362.918 158.995 363.289 158.95 363.571 158.909C363.852 158.864 364.056 158.799 364.183 158.713C364.31 158.628 364.374 158.501 364.374 158.332V158.301C364.374 157.975 364.271 157.723 364.065 157.545C363.862 157.366 363.574 157.277 363.2 157.277C362.805 157.277 362.491 157.364 362.258 157.539C362.024 157.711 361.87 157.927 361.794 158.188L359.765 158.023C359.868 157.543 360.071 157.127 360.373 156.777C360.675 156.424 361.065 156.153 361.542 155.964C362.022 155.772 362.578 155.675 363.21 155.675C363.65 155.675 364.07 155.727 364.472 155.83C364.877 155.933 365.235 156.093 365.548 156.309C365.864 156.525 366.113 156.803 366.294 157.143C366.476 157.479 366.567 157.883 366.567 158.353V163.688H364.487V162.591H364.425C364.298 162.838 364.128 163.056 363.916 163.245C363.703 163.43 363.447 163.576 363.148 163.682C362.85 163.785 362.505 163.837 362.113 163.837ZM362.742 162.323C363.064 162.323 363.349 162.259 363.596 162.132C363.843 162.002 364.037 161.827 364.178 161.607C364.319 161.388 364.389 161.139 364.389 160.861V160.021C364.321 160.066 364.226 160.107 364.106 160.145C363.989 160.179 363.857 160.212 363.71 160.243C363.562 160.27 363.414 160.296 363.267 160.32C363.119 160.341 362.985 160.359 362.865 160.377C362.608 160.414 362.383 160.474 362.191 160.557C361.998 160.639 361.849 160.751 361.743 160.892C361.636 161.029 361.583 161.2 361.583 161.406C361.583 161.705 361.691 161.933 361.907 162.091C362.127 162.246 362.405 162.323 362.742 162.323ZM368.269 163.688V155.778H370.463V163.688H368.269ZM369.371 154.759C369.045 154.759 368.765 154.651 368.532 154.434C368.302 154.215 368.187 153.952 368.187 153.647C368.187 153.345 368.302 153.085 368.532 152.869C368.765 152.649 369.045 152.54 369.371 152.54C369.697 152.54 369.975 152.649 370.205 152.869C370.439 153.085 370.555 153.345 370.555 153.647C370.555 153.952 370.439 154.215 370.205 154.434C369.975 154.651 369.697 154.759 369.371 154.759ZM376.427 155.778V157.426H371.664V155.778H376.427ZM372.745 153.884H374.939V161.257C374.939 161.46 374.969 161.618 375.031 161.731C375.093 161.841 375.179 161.918 375.289 161.963C375.402 162.007 375.532 162.029 375.68 162.029C375.783 162.029 375.886 162.021 375.989 162.004C376.092 161.983 376.171 161.968 376.226 161.957L376.571 163.59C376.461 163.624 376.307 163.663 376.107 163.708C375.908 163.756 375.666 163.785 375.381 163.796C374.853 163.816 374.389 163.746 373.991 163.585C373.596 163.423 373.289 163.173 373.069 162.833C372.85 162.493 372.742 162.064 372.745 161.545V153.884ZM379.138 163.821C378.798 163.821 378.506 163.701 378.262 163.461C378.022 163.217 377.902 162.925 377.902 162.586C377.902 162.249 378.022 161.961 378.262 161.721C378.506 161.48 378.798 161.36 379.138 161.36C379.467 161.36 379.756 161.48 380.003 161.721C380.25 161.961 380.374 162.249 380.374 162.586C380.374 162.812 380.315 163.02 380.198 163.209C380.085 163.394 379.936 163.543 379.75 163.657C379.565 163.766 379.361 163.821 379.138 163.821Z" fill="white"/>
<circle cx="71" cy="71" r="71" fill="#3549E3"/>
<rect x="69" y="126" width="312" height="16" fill="#3549E3"/>
<mask id="mask0_60_366" style="mask-type:alpha" maskUnits="userSpaceOnUse" x="0" y="0" width="130" height="142">
<ellipse cx="65" cy="71" rx="65" ry="71" fill="#000C66"/>
</mask>
<g mask="url(#mask0_60_366)">
<circle cx="6" cy="26" r="69" fill="#838EDC" fill-opacity="0.5"/>
<ellipse cx="71" cy="35" rx="16" ry="15" fill="#171F51"/>
<ellipse cx="33" cy="71" rx="15" ry="16" fill="#171F51"/>
<ellipse cx="71" cy="109" rx="16" ry="15" fill="#171F51"/>
<ellipse cx="111" cy="71" rx="15" ry="16" fill="#171F51"/>
<circle cx="71.5" cy="70.5" r="6.5" fill="#171F51"/>
</g>
</svg>
